<?xml version="1.0" encoding="UTF-8" standalone="no"?>
<!DOCTYPE svg PUBLIC "-//W3C//DTD SVG 1.1//EN"
 "http://www.w3.org/Graphics/SVG/1.1/DTD/svg11.dtd">
<!-- Generated by graphviz version 2.40.1 (20161225.0304)
 -->
<!-- Title: G Pages: 1 -->
<svg width="684pt" height="1554pt"
 viewBox="0.00 0.00 684.00 1554.00" xmlns="http://www.w3.org/2000/svg" xmlns:xlink="http://www.w3.org/1999/xlink">
<g id="graph0" class="graph" transform="scale(1 1) rotate(0) translate(4 1550)">
<title>G</title>
<polygon fill="#ffffff" stroke="transparent" points="-4,4 -4,-1550 680,-1550 680,4 -4,4"/>
<g id="clust1" class="cluster">
<title>cluster_Global</title>
<path fill="none" stroke="#c0c0c0" d="M20,-8C20,-8 656,-8 656,-8 662,-8 668,-14 668,-20 668,-20 668,-1526 668,-1526 668,-1532 662,-1538 656,-1538 656,-1538 20,-1538 20,-1538 14,-1538 8,-1532 8,-1526 8,-1526 8,-20 8,-20 8,-14 14,-8 20,-8"/>
<text text-anchor="middle" x="338" y="-1525.2" font-family="Times,serif" font-size="11.00" fill="#c0c0c0">Global</text>
</g>
<!-- \\ReadmeController -->
<g id="node1" class="node">
<title>\\ReadmeController</title>
<polygon fill="none" stroke="#000000" points="446.5,-430 321.5,-430 321.5,-394 446.5,-394 446.5,-430"/>
<text text-anchor="middle" x="384" y="-409.2" font-family="Courier,monospace" font-size="11.00" fill="#000000">ReadmeController</text>
</g>
<!-- \\Controller -->
<g id="node45" class="node">
<title>\\Controller</title>
<polygon fill="none" stroke="#000000" points="229.5,-376 145.5,-376 145.5,-340 229.5,-340 229.5,-376"/>
<text text-anchor="middle" x="187.5" y="-355.2" font-family="Courier,monospace" font-size="11.00" fill="#000000">Controller</text>
</g>
<!-- \\ReadmeController&#45;&gt;\\Controller -->
<g id="edge1" class="edge">
<title>\\ReadmeController&#45;&gt;\\Controller</title>
<path fill="none" stroke="#000000" d="M321.2859,-394.7656C294.9104,-387.5174 264.586,-379.1839 239.4834,-372.2855"/>
<polygon fill="none" stroke="#000000" points="240.3543,-368.8952 229.7843,-369.6201 238.4993,-375.6449 240.3543,-368.8952"/>
</g>
<!-- \\IssuView -->
<g id="node2" class="node">
<title>\\IssuView</title>
<polygon fill="none" stroke="#000000" points="633,-754 562,-754 562,-718 633,-718 633,-754"/>
<text text-anchor="middle" x="597.5" y="-733.2" font-family="Courier,monospace" font-size="11.00" fill="#000000">IssuView</text>
</g>
<!-- \\CommonView -->
<g id="node47" class="node">
<title>\\CommonView</title>
<polygon fill="none" stroke="#000000" points="426,-1132 342,-1132 342,-1096 426,-1096 426,-1132"/>
<text text-anchor="middle" x="384" y="-1111.2" font-family="Courier,monospace" font-size="11.00" fill="#000000">CommonView</text>
</g>
<!-- \\IssuView&#45;&gt;\\CommonView -->
<g id="edge2" class="edge">
<title>\\IssuView&#45;&gt;\\CommonView</title>
<path fill="none" stroke="#000000" d="M561.899,-745.9753C552.2517,-750.0243 542.4329,-755.5558 535,-763 440.6498,-857.4935 401.3161,-1020.4001 388.8138,-1085.7098"/>
<polygon fill="none" stroke="#000000" points="385.3467,-1085.2115 386.9704,-1095.6812 392.23,-1086.4841 385.3467,-1085.2115"/>
</g>
<!-- \\JweModel -->
<g id="node3" class="node">
<title>\\JweModel</title>
<polygon fill="none" stroke="#000000" points="633,-1456 562,-1456 562,-1420 633,-1420 633,-1456"/>
<text text-anchor="middle" x="597.5" y="-1435.2" font-family="Courier,monospace" font-size="11.00" fill="#000000">JweModel</text>
</g>
<!-- \\JwtModel -->
<g id="node4" class="node">
<title>\\JwtModel</title>
<polygon fill="none" stroke="#000000" points="633,-1402 562,-1402 562,-1366 633,-1366 633,-1402"/>
<text text-anchor="middle" x="597.5" y="-1381.2" font-family="Courier,monospace" font-size="11.00" fill="#000000">JwtModel</text>
</g>
<!-- \\AdomanyView -->
<g id="node5" class="node">
<title>\\AdomanyView</title>
<polygon fill="none" stroke="#000000" points="643,-646 552,-646 552,-610 643,-610 643,-646"/>
<text text-anchor="middle" x="597.5" y="-625.2" font-family="Courier,monospace" font-size="11.00" fill="#000000">AdomanyView</text>
</g>
<!-- \\AdomanyView&#45;&gt;\\CommonView -->
<g id="edge3" class="edge">
<title>\\AdomanyView&#45;&gt;\\CommonView</title>
<path fill="none" stroke="#000000" d="M551.7867,-642.2132C545.5602,-645.6429 539.7045,-649.8521 535,-655 417.1733,-783.9335 391.1234,-1006.7568 385.5036,-1085.4613"/>
<polygon fill="none" stroke="#000000" points="382.0016,-1085.3777 384.8387,-1095.5855 388.9866,-1085.8364 382.0016,-1085.3777"/>
</g>
<!-- \\FrontpageView -->
<g id="node6" class="node">
<title>\\FrontpageView</title>
<polygon fill="none" stroke="#000000" points="649.5,-1510 545.5,-1510 545.5,-1474 649.5,-1474 649.5,-1510"/>
<text text-anchor="middle" x="597.5" y="-1489.2" font-family="Courier,monospace" font-size="11.00" fill="#000000">FrontpageView</text>
</g>
<!-- \\FrontpageView&#45;&gt;\\CommonView -->
<g id="edge4" class="edge">
<title>\\FrontpageView&#45;&gt;\\CommonView</title>
<path fill="none" stroke="#000000" d="M545.2411,-1474.3472C541.4301,-1471.6497 537.9373,-1468.5528 535,-1465 441.0071,-1351.3103 561.3794,-1250.9159 463,-1141 455.8211,-1132.9793 446.1589,-1127.3399 436.0584,-1123.3753"/>
<polygon fill="none" stroke="#000000" points="436.9013,-1119.9652 426.3069,-1120.0642 434.6506,-1126.5936 436.9013,-1119.9652"/>
</g>
<!-- \\ImpresszumView -->
<g id="node7" class="node">
<title>\\ImpresszumView</title>
<polygon fill="none" stroke="#000000" points="653,-1348 542,-1348 542,-1312 653,-1312 653,-1348"/>
<text text-anchor="middle" x="597.5" y="-1327.2" font-family="Courier,monospace" font-size="11.00" fill="#000000">ImpresszumView</text>
</g>
<!-- \\ImpresszumView&#45;&gt;\\CommonView -->
<g id="edge5" class="edge">
<title>\\ImpresszumView&#45;&gt;\\CommonView</title>
<path fill="none" stroke="#000000" d="M546.2781,-1311.8743C542.1969,-1309.2713 538.3606,-1306.3257 535,-1303 478.9964,-1247.578 521.1341,-1194.1829 463,-1141 455.301,-1133.9567 445.6845,-1128.7396 435.838,-1124.8785"/>
<polygon fill="none" stroke="#000000" points="436.9768,-1121.569 426.382,-1121.5768 434.6692,-1128.1777 436.9768,-1121.569"/>
</g>
<!-- \\OpenidView -->
<g id="node8" class="node">
<title>\\OpenidView</title>
<polygon fill="none" stroke="#000000" points="639.5,-1294 555.5,-1294 555.5,-1258 639.5,-1258 639.5,-1294"/>
<text text-anchor="middle" x="597.5" y="-1273.2" font-family="Courier,monospace" font-size="11.00" fill="#000000">OpenidView</text>
</g>
<!-- \\OpenidView&#45;&gt;\\CommonView -->
<g id="edge6" class="edge">
<title>\\OpenidView&#45;&gt;\\CommonView</title>
<path fill="none" stroke="#000000" d="M555.2197,-1261.717C548.046,-1258.2127 540.9902,-1253.9975 535,-1249 490.7026,-1212.0441 508.7127,-1176.1902 463,-1141 454.9891,-1134.8331 445.4789,-1130.0223 435.8812,-1126.2865"/>
<polygon fill="none" stroke="#000000" points="436.9013,-1122.9349 426.3065,-1122.8986 434.5662,-1129.5339 436.9013,-1122.9349"/>
</g>
<!-- \\FrontpageModel -->
<g id="node9" class="node">
<title>\\FrontpageModel</title>
<polygon fill="none" stroke="#000000" points="653,-1132 542,-1132 542,-1096 653,-1096 653,-1132"/>
<text text-anchor="middle" x="597.5" y="-1111.2" font-family="Courier,monospace" font-size="11.00" fill="#000000">FrontpageModel</text>
</g>
<!-- \\GoogleloginController -->
<g id="node10" class="node">
<title>\\GoogleloginController</title>
<polygon fill="none" stroke="#000000" points="463,-376 305,-376 305,-340 463,-340 463,-376"/>
<text text-anchor="middle" x="384" y="-355.2" font-family="Courier,monospace" font-size="11.00" fill="#000000">GoogleloginController</text>
</g>
<!-- \\GoogleloginController&#45;&gt;\\Controller -->
<g id="edge7" class="edge">
<title>\\GoogleloginController&#45;&gt;\\Controller</title>
<path fill="none" stroke="#000000" d="M304.9253,-358C283.039,-358 259.8318,-358 239.879,-358"/>
<polygon fill="none" stroke="#000000" points="239.7659,-354.5001 229.7659,-358 239.7659,-361.5001 239.7659,-354.5001"/>
</g>
<!-- \\MdView -->
<g id="node11" class="node">
<title>\\MdView</title>
<polygon fill="none" stroke="#000000" points="626,-1240 569,-1240 569,-1204 626,-1204 626,-1240"/>
<text text-anchor="middle" x="597.5" y="-1219.2" font-family="Courier,monospace" font-size="11.00" fill="#000000">MdView</text>
</g>
<!-- \\MdView&#45;&gt;\\CommonView -->
<g id="edge8" class="edge">
<title>\\MdView&#45;&gt;\\CommonView</title>
<path fill="none" stroke="#000000" d="M568.8098,-1211.2711C557.9419,-1206.7807 545.6332,-1201.1681 535,-1195 500.3999,-1174.9292 498.3606,-1159.6983 463,-1141 454.4413,-1136.4742 444.9704,-1132.472 435.6462,-1129.0283"/>
<polygon fill="none" stroke="#000000" points="436.6216,-1125.6612 426.0268,-1125.6431 434.2979,-1132.2643 436.6216,-1125.6612"/>
</g>
<!-- \\UserRecord -->
<g id="node12" class="node">
<title>\\UserRecord</title>
<polygon fill="none" stroke="#000000" points="639.5,-1024 555.5,-1024 555.5,-988 639.5,-988 639.5,-1024"/>
<text text-anchor="middle" x="597.5" y="-1003.2" font-family="Courier,monospace" font-size="11.00" fill="#000000">UserRecord</text>
</g>
<!-- \\OpenidModel -->
<g id="node13" class="node">
<title>\\OpenidModel</title>
<polygon fill="none" stroke="#000000" points="643,-970 552,-970 552,-934 643,-934 643,-970"/>
<text text-anchor="middle" x="597.5" y="-949.2" font-family="Courier,monospace" font-size="11.00" fill="#000000">OpenidModel</text>
</g>
<!-- \\AdatkezelesView -->
<g id="node14" class="node">
<title>\\AdatkezelesView</title>
<polygon fill="none" stroke="#000000" points="656.5,-1186 538.5,-1186 538.5,-1150 656.5,-1150 656.5,-1186"/>
<text text-anchor="middle" x="597.5" y="-1165.2" font-family="Courier,monospace" font-size="11.00" fill="#000000">AdatkezelesView</text>
</g>
<!-- \\AdatkezelesView&#45;&gt;\\CommonView -->
<g id="edge9" class="edge">
<title>\\AdatkezelesView&#45;&gt;\\CommonView</title>
<path fill="none" stroke="#000000" d="M538.3119,-1153.0297C506.1302,-1144.8901 466.6995,-1134.917 435.7526,-1127.0897"/>
<polygon fill="none" stroke="#000000" points="436.5759,-1123.6877 426.0229,-1124.6288 434.8594,-1130.474 436.5759,-1123.6877"/>
</g>
<!-- \\ImpresszumController -->
<g id="node15" class="node">
<title>\\ImpresszumController</title>
<polygon fill="none" stroke="#000000" points="460,-268 308,-268 308,-232 460,-232 460,-268"/>
<text text-anchor="middle" x="384" y="-247.2" font-family="Courier,monospace" font-size="11.00" fill="#000000">ImpresszumController</text>
</g>
<!-- \\ImpresszumController&#45;&gt;\\Controller -->
<g id="edge10" class="edge">
<title>\\ImpresszumController&#45;&gt;\\Controller</title>
<path fill="none" stroke="#000000" d="M325.0174,-268.1464C318.1529,-270.8457 311.3435,-273.8061 305,-277 273.4648,-292.8778 240.6299,-316.1769 217.7134,-333.7156"/>
<polygon fill="none" stroke="#000000" points="215.5021,-331.0012 209.74,-339.8921 219.7889,-336.535 215.5021,-331.0012"/>
</g>
<!-- \\AppregistView -->
<g id="node16" class="node">
<title>\\AppregistView</title>
<polygon fill="none" stroke="#000000" points="649.5,-1078 545.5,-1078 545.5,-1042 649.5,-1042 649.5,-1078"/>
<text text-anchor="middle" x="597.5" y="-1057.2" font-family="Courier,monospace" font-size="11.00" fill="#000000">AppregistView</text>
</g>
<!-- \\AppregistView&#45;&gt;\\CommonView -->
<g id="edge11" class="edge">
<title>\\AppregistView&#45;&gt;\\CommonView</title>
<path fill="none" stroke="#000000" d="M545.272,-1073.2099C512.0447,-1081.614 469.1838,-1092.4547 436.0006,-1100.8476"/>
<polygon fill="none" stroke="#000000" points="434.8709,-1097.5231 426.0344,-1103.3684 436.5873,-1104.3094 434.8709,-1097.5231"/>
</g>
<!-- \\Relation -->
<g id="node17" class="node">
<title>\\Relation</title>
<polygon fill="none" stroke="#000000" points="633,-808 562,-808 562,-772 633,-772 633,-808"/>
<text text-anchor="middle" x="597.5" y="-787.2" font-family="Courier,monospace" font-size="11.00" fill="#000000">Relation</text>
</g>
<!-- \\DB -->
<g id="node18" class="node">
<title>\\DB</title>
<polygon fill="none" stroke="#000000" points="70,-700 16,-700 16,-664 70,-664 70,-700"/>
<text text-anchor="middle" x="43" y="-679.2" font-family="Courier,monospace" font-size="11.00" fill="#000000">DB</text>
</g>
<!-- \\SimpleTable -->
<g id="node19" class="node">
<title>\\SimpleTable</title>
<polygon fill="none" stroke="#000000" points="233,-700 142,-700 142,-664 233,-664 233,-700"/>
<text text-anchor="middle" x="187.5" y="-679.2" font-family="Courier,monospace" font-size="11.00" fill="#000000">SimpleTable</text>
</g>
<!-- \\SimpleTable&#45;&gt;\\DB -->
<g id="edge12" class="edge">
<title>\\SimpleTable&#45;&gt;\\DB</title>
<path fill="none" stroke="#000000" d="M141.7793,-682C122.058,-682 99.2743,-682 80.5612,-682"/>
<polygon fill="none" stroke="#000000" points="80.3493,-678.5001 70.3492,-682 80.3492,-685.5001 80.3493,-678.5001"/>
</g>
<!-- \\Table -->
<g id="node20" class="node">
<title>\\Table</title>
<polygon fill="none" stroke="#000000" points="411,-700 357,-700 357,-664 411,-664 411,-700"/>
<text text-anchor="middle" x="384" y="-679.2" font-family="Courier,monospace" font-size="11.00" fill="#000000">Table</text>
</g>
<!-- \\Table&#45;&gt;\\SimpleTable -->
<g id="edge13" class="edge">
<title>\\Table&#45;&gt;\\SimpleTable</title>
<path fill="none" stroke="#000000" d="M356.6775,-682C327.4707,-682 280.3582,-682 243.2581,-682"/>
<polygon fill="none" stroke="#000000" points="243.0827,-678.5001 233.0827,-682 243.0826,-685.5001 243.0827,-678.5001"/>
</g>
<!-- \\Filter -->
<g id="node21" class="node">
<title>\\Filter</title>
<polygon fill="none" stroke="#000000" points="626,-592 569,-592 569,-556 626,-556 626,-592"/>
<text text-anchor="middle" x="597.5" y="-571.2" font-family="Courier,monospace" font-size="11.00" fill="#000000">Filter</text>
</g>
<!-- \\Filter&#45;&gt;\\Table -->
<g id="edge14" class="edge">
<title>\\Filter&#45;&gt;\\Table</title>
<path fill="none" stroke="#000000" d="M568.8098,-584.7289C557.9419,-589.2193 545.6332,-594.8319 535,-601 500.3999,-621.0708 498.3606,-636.3017 463,-655 449.8025,-661.9787 434.4363,-667.7125 420.783,-672.0734"/>
<polygon fill="none" stroke="#000000" points="419.7386,-668.7327 411.1994,-675.0044 421.7859,-675.4267 419.7386,-668.7327"/>
</g>
<!-- \\TxtController -->
<g id="node22" class="node">
<title>\\TxtController</title>
<polygon fill="none" stroke="#000000" points="436,-214 332,-214 332,-178 436,-178 436,-214"/>
<text text-anchor="middle" x="384" y="-193.2" font-family="Courier,monospace" font-size="11.00" fill="#000000">TxtController</text>
</g>
<!-- \\TxtController&#45;&gt;\\Controller -->
<g id="edge15" class="edge">
<title>\\TxtController&#45;&gt;\\Controller</title>
<path fill="none" stroke="#000000" d="M331.9938,-209.3991C322.5869,-213.0175 313.179,-217.5004 305,-223 261.8186,-252.0351 224.85,-300.8547 204.445,-331.1483"/>
<polygon fill="none" stroke="#000000" points="201.4918,-329.2689 198.8965,-339.541 207.3311,-333.1294 201.4918,-329.2689"/>
</g>
<!-- \\AppRecord -->
<g id="node23" class="node">
<title>\\AppRecord</title>
<polygon fill="none" stroke="#000000" points="636,-700 559,-700 559,-664 636,-664 636,-700"/>
<text text-anchor="middle" x="597.5" y="-679.2" font-family="Courier,monospace" font-size="11.00" fill="#000000">AppRecord</text>
</g>
<!-- \\AppregistModel -->
<g id="node24" class="node">
<title>\\AppregistModel</title>
<polygon fill="none" stroke="#000000" points="653,-214 542,-214 542,-178 653,-178 653,-214"/>
<text text-anchor="middle" x="597.5" y="-193.2" font-family="Courier,monospace" font-size="11.00" fill="#000000">AppregistModel</text>
</g>
<!-- \\Model -->
<g id="node43" class="node">
<title>\\Model</title>
<polygon fill="none" stroke="#000000" points="411,-322 357,-322 357,-286 411,-286 411,-322"/>
<text text-anchor="middle" x="384" y="-301.2" font-family="Courier,monospace" font-size="11.00" fill="#000000">Model</text>
</g>
<!-- \\AppregistModel&#45;&gt;\\Model -->
<g id="edge16" class="edge">
<title>\\AppregistModel&#45;&gt;\\Model</title>
<path fill="none" stroke="#000000" d="M552.1495,-214.0777C546.2728,-216.8576 540.4188,-219.8566 535,-223 500.3999,-243.0708 498.3606,-258.3017 463,-277 449.8025,-283.9787 434.4363,-289.7125 420.783,-294.0734"/>
<polygon fill="none" stroke="#000000" points="419.7386,-290.7327 411.1994,-297.0044 421.7859,-297.4267 419.7386,-290.7327"/>
</g>
<!-- \\PdfformView -->
<g id="node25" class="node">
<title>\\PdfformView</title>
<polygon fill="none" stroke="#000000" points="429.5,-1186 338.5,-1186 338.5,-1150 429.5,-1150 429.5,-1186"/>
<text text-anchor="middle" x="384" y="-1165.2" font-family="Courier,monospace" font-size="11.00" fill="#000000">PdfformView</text>
</g>
<!-- \\View -->
<g id="node44" class="node">
<title>\\View</title>
<polygon fill="none" stroke="#000000" points="214.5,-1159 160.5,-1159 160.5,-1123 214.5,-1123 214.5,-1159"/>
<text text-anchor="middle" x="187.5" y="-1138.2" font-family="Courier,monospace" font-size="11.00" fill="#000000">View</text>
</g>
<!-- \\PdfformView&#45;&gt;\\View -->
<g id="edge17" class="edge">
<title>\\PdfformView&#45;&gt;\\View</title>
<path fill="none" stroke="#000000" d="M338.425,-1161.7378C303.8465,-1156.9865 256.9091,-1150.5371 224.607,-1146.0987"/>
<polygon fill="none" stroke="#000000" points="225.0511,-1142.6269 214.6677,-1144.733 224.0981,-1149.5617 225.0511,-1142.6269"/>
</g>
<!-- \\IssuController -->
<g id="node26" class="node">
<title>\\IssuController</title>
<polygon fill="none" stroke="#000000" points="439.5,-160 328.5,-160 328.5,-124 439.5,-124 439.5,-160"/>
<text text-anchor="middle" x="384" y="-139.2" font-family="Courier,monospace" font-size="11.00" fill="#000000">IssuController</text>
</g>
<!-- \\IssuController&#45;&gt;\\Controller -->
<g id="edge18" class="edge">
<title>\\IssuController&#45;&gt;\\Controller</title>
<path fill="none" stroke="#000000" d="M328.363,-155.5511C320.0267,-159.0821 311.9194,-163.4961 305,-169 250.1095,-212.662 213.9824,-289.4379 197.6091,-330.41"/>
<polygon fill="none" stroke="#000000" points="194.3292,-329.1874 193.9625,-339.7759 200.8523,-331.7272 194.3292,-329.1874"/>
</g>
<!-- \\ReadmeView -->
<g id="node27" class="node">
<title>\\ReadmeView</title>
<polygon fill="none" stroke="#000000" points="639.5,-916 555.5,-916 555.5,-880 639.5,-880 639.5,-916"/>
<text text-anchor="middle" x="597.5" y="-895.2" font-family="Courier,monospace" font-size="11.00" fill="#000000">ReadmeView</text>
</g>
<!-- \\ReadmeView&#45;&gt;\\CommonView -->
<g id="edge19" class="edge">
<title>\\ReadmeView&#45;&gt;\\CommonView</title>
<path fill="none" stroke="#000000" d="M555.2382,-912.8744C548.1403,-916.3008 541.1058,-920.3367 535,-925 474.3077,-971.3537 423.6518,-1047.2122 399.3952,-1087.2747"/>
<polygon fill="none" stroke="#000000" points="396.3345,-1085.5736 394.215,-1095.9542 402.3454,-1089.161 396.3345,-1085.5736"/>
</g>
<!-- \\AppregistController -->
<g id="node28" class="node">
<title>\\AppregistController</title>
<polygon fill="none" stroke="#000000" points="456.5,-106 311.5,-106 311.5,-70 456.5,-70 456.5,-106"/>
<text text-anchor="middle" x="384" y="-85.2" font-family="Courier,monospace" font-size="11.00" fill="#000000">AppregistController</text>
</g>
<!-- \\AppregistController&#45;&gt;\\Controller -->
<g id="edge20" class="edge">
<title>\\AppregistController&#45;&gt;\\Controller</title>
<path fill="none" stroke="#000000" d="M317.5167,-106.1038C313.0334,-108.6879 308.7976,-111.6364 305,-115 238.1903,-174.1742 205.7547,-279.7961 193.5248,-330.0042"/>
<polygon fill="none" stroke="#000000" points="190.0939,-329.3051 191.2167,-339.8403 196.9087,-330.9043 190.0939,-329.3051"/>
</g>
<!-- \\OpenidUserController -->
<g id="node29" class="node">
<title>\\OpenidUserController</title>
<polygon fill="none" stroke="#000000" points="460,-484 308,-484 308,-448 460,-448 460,-484"/>
<text text-anchor="middle" x="384" y="-463.2" font-family="Courier,monospace" font-size="11.00" fill="#000000">OpenidUserController</text>
</g>
<!-- \\OpenidUserController&#45;&gt;\\Controller -->
<g id="edge21" class="edge">
<title>\\OpenidUserController&#45;&gt;\\Controller</title>
<path fill="none" stroke="#000000" d="M325.0174,-447.8536C318.1529,-445.1543 311.3435,-442.1939 305,-439 273.4648,-423.1222 240.6299,-399.8231 217.7134,-382.2844"/>
<polygon fill="none" stroke="#000000" points="219.7889,-379.465 209.74,-376.1079 215.5021,-384.9988 219.7889,-379.465"/>
</g>
<!-- \\OpenidController -->
<g id="node30" class="node">
<title>\\OpenidController</title>
<polygon fill="none" stroke="#000000" points="660,-538 535,-538 535,-502 660,-502 660,-538"/>
<text text-anchor="middle" x="597.5" y="-517.2" font-family="Courier,monospace" font-size="11.00" fill="#000000">OpenidController</text>
</g>
<!-- \\OpenidController&#45;&gt;\\OpenidUserController -->
<g id="edge22" class="edge">
<title>\\OpenidController&#45;&gt;\\OpenidUserController</title>
<path fill="none" stroke="#000000" d="M534.8855,-504.1631C513.0301,-498.6353 488.179,-492.3497 465.0413,-486.4976"/>
<polygon fill="none" stroke="#000000" points="465.7966,-483.0785 455.2437,-484.0195 464.0802,-489.8648 465.7966,-483.0785"/>
</g>
<!-- \\UkloginModel -->
<g id="node31" class="node">
<title>\\UkloginModel</title>
<polygon fill="none" stroke="#000000" points="646.5,-484 548.5,-484 548.5,-448 646.5,-448 646.5,-484"/>
<text text-anchor="middle" x="597.5" y="-463.2" font-family="Courier,monospace" font-size="11.00" fill="#000000">UkloginModel</text>
</g>
<!-- \\AdatkezelesController -->
<g id="node32" class="node">
<title>\\AdatkezelesController</title>
<polygon fill="none" stroke="#000000" points="463,-52 305,-52 305,-16 463,-16 463,-52"/>
<text text-anchor="middle" x="384" y="-31.2" font-family="Courier,monospace" font-size="11.00" fill="#000000">AdatkezelesController</text>
</g>
<!-- \\AdatkezelesController&#45;&gt;\\Controller -->
<g id="edge23" class="edge">
<title>\\AdatkezelesController&#45;&gt;\\Controller</title>
<path fill="none" stroke="#000000" d="M316.8559,-52.0248C312.5787,-54.625 308.5662,-57.5989 305,-61 226.0465,-136.297 199.0484,-271.2898 190.7807,-329.7397"/>
<polygon fill="none" stroke="#000000" points="187.301,-329.3559 189.4467,-339.7312 194.2394,-330.2824 187.301,-329.3559"/>
</g>
<!-- \\IssuRecord -->
<g id="node33" class="node">
<title>\\IssuRecord</title>
<polygon fill="none" stroke="#000000" points="639.5,-430 555.5,-430 555.5,-394 639.5,-394 639.5,-430"/>
<text text-anchor="middle" x="597.5" y="-409.2" font-family="Courier,monospace" font-size="11.00" fill="#000000">IssuRecord</text>
</g>
<!-- \\IssuModel -->
<g id="node34" class="node">
<title>\\IssuModel</title>
<polygon fill="none" stroke="#000000" points="636,-376 559,-376 559,-340 636,-340 636,-376"/>
<text text-anchor="middle" x="597.5" y="-355.2" font-family="Courier,monospace" font-size="11.00" fill="#000000">IssuModel</text>
</g>
<!-- \\PdfData -->
<g id="node35" class="node">
<title>\\PdfData</title>
<polygon fill="none" stroke="#000000" points="629.5,-322 565.5,-322 565.5,-286 629.5,-286 629.5,-322"/>
<text text-anchor="middle" x="597.5" y="-301.2" font-family="Courier,monospace" font-size="11.00" fill="#000000">PdfData</text>
</g>
<!-- \\PdfparserModel -->
<g id="node36" class="node">
<title>\\PdfparserModel</title>
<polygon fill="none" stroke="#000000" points="653,-268 542,-268 542,-232 653,-232 653,-268"/>
<text text-anchor="middle" x="597.5" y="-247.2" font-family="Courier,monospace" font-size="11.00" fill="#000000">PdfparserModel</text>
</g>
<!-- \\FbloginController -->
<g id="node37" class="node">
<title>\\FbloginController</title>
<polygon fill="none" stroke="#000000" points="449.5,-646 318.5,-646 318.5,-610 449.5,-610 449.5,-646"/>
<text text-anchor="middle" x="384" y="-625.2" font-family="Courier,monospace" font-size="11.00" fill="#000000">FbloginController</text>
</g>
<!-- \\FbloginController&#45;&gt;\\Controller -->
<g id="edge24" class="edge">
<title>\\FbloginController&#45;&gt;\\Controller</title>
<path fill="none" stroke="#000000" d="M318.2876,-610.3356C313.5189,-607.6477 309.0146,-604.5558 305,-601 238.1903,-541.8258 205.7547,-436.2039 193.5248,-385.9958"/>
<polygon fill="none" stroke="#000000" points="196.9087,-385.0957 191.2167,-376.1597 190.0939,-386.6949 196.9087,-385.0957"/>
</g>
<!-- \\DefaultController -->
<g id="node38" class="node">
<title>\\DefaultController</title>
<polygon fill="none" stroke="#000000" points="449.5,-592 318.5,-592 318.5,-556 449.5,-556 449.5,-592"/>
<text text-anchor="middle" x="384" y="-571.2" font-family="Courier,monospace" font-size="11.00" fill="#000000">DefaultController</text>
</g>
<!-- \\DefaultController&#45;&gt;\\Controller -->
<g id="edge25" class="edge">
<title>\\DefaultController&#45;&gt;\\Controller</title>
<path fill="none" stroke="#000000" d="M318.6882,-555.8585C313.8311,-553.2759 309.197,-550.3385 305,-547 250.1095,-503.338 213.9824,-426.5621 197.6091,-385.59"/>
<polygon fill="none" stroke="#000000" points="200.8523,-384.2728 193.9625,-376.2241 194.3292,-386.8126 200.8523,-384.2728"/>
</g>
<!-- \\AdomanyController -->
<g id="node39" class="node">
<title>\\AdomanyController</title>
<polygon fill="none" stroke="#000000" points="449.5,-538 318.5,-538 318.5,-502 449.5,-502 449.5,-538"/>
<text text-anchor="middle" x="384" y="-517.2" font-family="Courier,monospace" font-size="11.00" fill="#000000">AdomanyController</text>
</g>
<!-- \\AdomanyController&#45;&gt;\\Controller -->
<g id="edge26" class="edge">
<title>\\AdomanyController&#45;&gt;\\Controller</title>
<path fill="none" stroke="#000000" d="M320.865,-501.8723C315.3097,-499.2623 309.9315,-496.3159 305,-493 261.8186,-463.9649 224.85,-415.1453 204.445,-384.8517"/>
<polygon fill="none" stroke="#000000" points="207.3311,-382.8706 198.8965,-376.459 201.4918,-386.7311 207.3311,-382.8706"/>
</g>
<!-- \\BrowserView -->
<g id="node40" class="node">
<title>\\BrowserView</title>
<polygon fill="none" stroke="#000000" points="643,-862 552,-862 552,-826 643,-826 643,-862"/>
<text text-anchor="middle" x="597.5" y="-841.2" font-family="Courier,monospace" font-size="11.00" fill="#000000">BrowserView</text>
</g>
<!-- \\BrowserView&#45;&gt;\\CommonView -->
<g id="edge27" class="edge">
<title>\\BrowserView&#45;&gt;\\CommonView</title>
<path fill="none" stroke="#000000" d="M551.8449,-859.7772C545.8253,-862.9564 540.0142,-866.679 535,-871 463.3672,-932.731 414.7656,-1037.0409 394.5571,-1086.4575"/>
<polygon fill="none" stroke="#000000" points="391.2611,-1085.2732 390.7864,-1095.8574 397.7579,-1087.8794 391.2611,-1085.2732"/>
</g>
<!-- \\Params -->
<g id="node41" class="node">
<title>\\Params</title>
<polygon fill="none" stroke="#000000" points="626,-160 569,-160 569,-124 626,-124 626,-160"/>
<text text-anchor="middle" x="597.5" y="-139.2" font-family="Courier,monospace" font-size="11.00" fill="#000000">Params</text>
</g>
<!-- \\GetRecordsResult -->
<g id="node42" class="node">
<title>\\GetRecordsResult</title>
<polygon fill="none" stroke="#000000" points="660,-106 535,-106 535,-70 660,-70 660,-106"/>
<text text-anchor="middle" x="597.5" y="-85.2" font-family="Courier,monospace" font-size="11.00" fill="#000000">GetRecordsResult</text>
</g>
<!-- \\Request -->
<g id="node46" class="node">
<title>\\Request</title>
<polygon fill="none" stroke="#000000" points="629.5,-52 565.5,-52 565.5,-16 629.5,-16 629.5,-52"/>
<text text-anchor="middle" x="597.5" y="-31.2" font-family="Courier,monospace" font-size="11.00" fill="#000000">Request</text>
</g>
<!-- \\CommonView&#45;&gt;\\View -->
<g id="edge28" class="edge">
<title>\\CommonView&#45;&gt;\\View</title>
<path fill="none" stroke="#000000" d="M341.8458,-1119.7922C307.1466,-1124.56 258.4089,-1131.2568 225.0386,-1135.842"/>
<polygon fill="none" stroke="#000000" points="224.2118,-1132.4227 214.7813,-1137.2514 225.1647,-1139.3575 224.2118,-1132.4227"/>
</g>
</g>
</svg>
