<?xml version="1.0" encoding="UTF-8" standalone="no"?>
<!DOCTYPE svg PUBLIC "-//W3C//DTD SVG 1.1//EN"
 "http://www.w3.org/Graphics/SVG/1.1/DTD/svg11.dtd">
<!-- Generated by graphviz version 2.40.1 (20161225.0304)
 -->
<!-- Title: G Pages: 1 -->
<svg width="684pt" height="1500pt"
 viewBox="0.00 0.00 684.00 1500.00" xmlns="http://www.w3.org/2000/svg" xmlns:xlink="http://www.w3.org/1999/xlink">
<g id="graph0" class="graph" transform="scale(1 1) rotate(0) translate(4 1496)">
<title>G</title>
<polygon fill="#ffffff" stroke="transparent" points="-4,4 -4,-1496 680,-1496 680,4 -4,4"/>
<g id="clust1" class="cluster">
<title>cluster_Global</title>
<path fill="none" stroke="#c0c0c0" d="M20,-8C20,-8 656,-8 656,-8 662,-8 668,-14 668,-20 668,-20 668,-1472 668,-1472 668,-1478 662,-1484 656,-1484 656,-1484 20,-1484 20,-1484 14,-1484 8,-1478 8,-1472 8,-1472 8,-20 8,-20 8,-14 14,-8 20,-8"/>
<text text-anchor="middle" x="338" y="-1471.2" font-family="Times,serif" font-size="11.00" fill="#c0c0c0">Global</text>
</g>
<!-- \\ReadmeController -->
<g id="node1" class="node">
<title>\\ReadmeController</title>
<polygon fill="none" stroke="#000000" points="446.5,-322 321.5,-322 321.5,-286 446.5,-286 446.5,-322"/>
<text text-anchor="middle" x="384" y="-301.2" font-family="Courier,monospace" font-size="11.00" fill="#000000">ReadmeController</text>
</g>
<!-- \\Controller -->
<g id="node42" class="node">
<title>\\Controller</title>
<polygon fill="none" stroke="#000000" points="229.5,-322 145.5,-322 145.5,-286 229.5,-286 229.5,-322"/>
<text text-anchor="middle" x="187.5" y="-301.2" font-family="Courier,monospace" font-size="11.00" fill="#000000">Controller</text>
</g>
<!-- \\ReadmeController&#45;&gt;\\Controller -->
<g id="edge1" class="edge">
<title>\\ReadmeController&#45;&gt;\\Controller</title>
<path fill="none" stroke="#000000" d="M321.2859,-304C295.0271,-304 264.8543,-304 239.8169,-304"/>
<polygon fill="none" stroke="#000000" points="239.7843,-300.5001 229.7843,-304 239.7843,-307.5001 239.7843,-300.5001"/>
</g>
<!-- \\IssuView -->
<g id="node2" class="node">
<title>\\IssuView</title>
<polygon fill="none" stroke="#000000" points="633,-808 562,-808 562,-772 633,-772 633,-808"/>
<text text-anchor="middle" x="597.5" y="-787.2" font-family="Courier,monospace" font-size="11.00" fill="#000000">IssuView</text>
</g>
<!-- \\CommonView -->
<g id="node44" class="node">
<title>\\CommonView</title>
<polygon fill="none" stroke="#000000" points="426,-1078 342,-1078 342,-1042 426,-1042 426,-1078"/>
<text text-anchor="middle" x="384" y="-1057.2" font-family="Courier,monospace" font-size="11.00" fill="#000000">CommonView</text>
</g>
<!-- \\IssuView&#45;&gt;\\CommonView -->
<g id="edge2" class="edge">
<title>\\IssuView&#45;&gt;\\CommonView</title>
<path fill="none" stroke="#000000" d="M561.9334,-800.9877C552.5034,-805.0183 542.7898,-810.2869 535,-817 463.3672,-878.731 414.7656,-983.0409 394.5571,-1032.4575"/>
<polygon fill="none" stroke="#000000" points="391.2611,-1031.2732 390.7864,-1041.8574 397.7579,-1033.8794 391.2611,-1031.2732"/>
</g>
<!-- \\JweModel -->
<g id="node3" class="node">
<title>\\JweModel</title>
<polygon fill="none" stroke="#000000" points="633,-1402 562,-1402 562,-1366 633,-1366 633,-1402"/>
<text text-anchor="middle" x="597.5" y="-1381.2" font-family="Courier,monospace" font-size="11.00" fill="#000000">JweModel</text>
</g>
<!-- \\JwtModel -->
<g id="node4" class="node">
<title>\\JwtModel</title>
<polygon fill="none" stroke="#000000" points="633,-1348 562,-1348 562,-1312 633,-1312 633,-1348"/>
<text text-anchor="middle" x="597.5" y="-1327.2" font-family="Courier,monospace" font-size="11.00" fill="#000000">JwtModel</text>
</g>
<!-- \\AdomanyView -->
<g id="node5" class="node">
<title>\\AdomanyView</title>
<polygon fill="none" stroke="#000000" points="643,-700 552,-700 552,-664 643,-664 643,-700"/>
<text text-anchor="middle" x="597.5" y="-679.2" font-family="Courier,monospace" font-size="11.00" fill="#000000">AdomanyView</text>
</g>
<!-- \\AdomanyView&#45;&gt;\\CommonView -->
<g id="edge3" class="edge">
<title>\\AdomanyView&#45;&gt;\\CommonView</title>
<path fill="none" stroke="#000000" d="M551.8638,-696.764C545.7011,-700.1097 539.8439,-704.1487 535,-709 440.6498,-803.4935 401.3161,-966.4001 388.8138,-1031.7098"/>
<polygon fill="none" stroke="#000000" points="385.3467,-1031.2115 386.9704,-1041.6812 392.23,-1032.4841 385.3467,-1031.2115"/>
</g>
<!-- \\FrontpageView -->
<g id="node6" class="node">
<title>\\FrontpageView</title>
<polygon fill="none" stroke="#000000" points="649.5,-592 545.5,-592 545.5,-556 649.5,-556 649.5,-592"/>
<text text-anchor="middle" x="597.5" y="-571.2" font-family="Courier,monospace" font-size="11.00" fill="#000000">FrontpageView</text>
</g>
<!-- \\FrontpageView&#45;&gt;\\CommonView -->
<g id="edge4" class="edge">
<title>\\FrontpageView&#45;&gt;\\CommonView</title>
<path fill="none" stroke="#000000" d="M545.3142,-592.1788C541.5376,-594.7582 538.03,-597.6844 535,-601 417.1733,-729.9335 391.1234,-952.7568 385.5036,-1031.4613"/>
<polygon fill="none" stroke="#000000" points="382.0016,-1031.3777 384.8387,-1041.5855 388.9866,-1031.8364 382.0016,-1031.3777"/>
</g>
<!-- \\ImpresszumView -->
<g id="node7" class="node">
<title>\\ImpresszumView</title>
<polygon fill="none" stroke="#000000" points="653,-1456 542,-1456 542,-1420 653,-1420 653,-1456"/>
<text text-anchor="middle" x="597.5" y="-1435.2" font-family="Courier,monospace" font-size="11.00" fill="#000000">ImpresszumView</text>
</g>
<!-- \\ImpresszumView&#45;&gt;\\CommonView -->
<g id="edge5" class="edge">
<title>\\ImpresszumView&#45;&gt;\\CommonView</title>
<path fill="none" stroke="#000000" d="M544.6574,-1419.9291C541.0734,-1417.3309 537.7866,-1414.3706 535,-1411 441.0071,-1297.3103 561.3794,-1196.9159 463,-1087 455.8211,-1078.9793 446.1589,-1073.3399 436.0584,-1069.3753"/>
<polygon fill="none" stroke="#000000" points="436.9013,-1065.9652 426.3069,-1066.0642 434.6506,-1072.5936 436.9013,-1065.9652"/>
</g>
<!-- \\OpenidView -->
<g id="node8" class="node">
<title>\\OpenidView</title>
<polygon fill="none" stroke="#000000" points="639.5,-1294 555.5,-1294 555.5,-1258 639.5,-1258 639.5,-1294"/>
<text text-anchor="middle" x="597.5" y="-1273.2" font-family="Courier,monospace" font-size="11.00" fill="#000000">OpenidView</text>
</g>
<!-- \\OpenidView&#45;&gt;\\CommonView -->
<g id="edge6" class="edge">
<title>\\OpenidView&#45;&gt;\\CommonView</title>
<path fill="none" stroke="#000000" d="M555.4533,-1263.0103C548.0095,-1259.3426 540.797,-1254.7368 535,-1249 478.9964,-1193.578 521.1341,-1140.1829 463,-1087 455.301,-1079.9567 445.6845,-1074.7396 435.838,-1070.8785"/>
<polygon fill="none" stroke="#000000" points="436.9768,-1067.569 426.382,-1067.5768 434.6692,-1074.1777 436.9768,-1067.569"/>
</g>
<!-- \\FrontpageModel -->
<g id="node9" class="node">
<title>\\FrontpageModel</title>
<polygon fill="none" stroke="#000000" points="653,-1078 542,-1078 542,-1042 653,-1042 653,-1078"/>
<text text-anchor="middle" x="597.5" y="-1057.2" font-family="Courier,monospace" font-size="11.00" fill="#000000">FrontpageModel</text>
</g>
<!-- \\MdView -->
<g id="node10" class="node">
<title>\\MdView</title>
<polygon fill="none" stroke="#000000" points="626,-1240 569,-1240 569,-1204 626,-1204 626,-1240"/>
<text text-anchor="middle" x="597.5" y="-1219.2" font-family="Courier,monospace" font-size="11.00" fill="#000000">MdView</text>
</g>
<!-- \\MdView&#45;&gt;\\CommonView -->
<g id="edge7" class="edge">
<title>\\MdView&#45;&gt;\\CommonView</title>
<path fill="none" stroke="#000000" d="M568.8139,-1213.5613C557.4575,-1209.2609 544.8022,-1203.1777 535,-1195 490.7026,-1158.0441 508.7127,-1122.1902 463,-1087 454.9891,-1080.8331 445.4789,-1076.0223 435.8812,-1072.2865"/>
<polygon fill="none" stroke="#000000" points="436.9013,-1068.9349 426.3065,-1068.8986 434.5662,-1075.5339 436.9013,-1068.9349"/>
</g>
<!-- \\UserRecord -->
<g id="node11" class="node">
<title>\\UserRecord</title>
<polygon fill="none" stroke="#000000" points="639.5,-970 555.5,-970 555.5,-934 639.5,-934 639.5,-970"/>
<text text-anchor="middle" x="597.5" y="-949.2" font-family="Courier,monospace" font-size="11.00" fill="#000000">UserRecord</text>
</g>
<!-- \\OpenidModel -->
<g id="node12" class="node">
<title>\\OpenidModel</title>
<polygon fill="none" stroke="#000000" points="643,-916 552,-916 552,-880 643,-880 643,-916"/>
<text text-anchor="middle" x="597.5" y="-895.2" font-family="Courier,monospace" font-size="11.00" fill="#000000">OpenidModel</text>
</g>
<!-- \\AdatkezelesView -->
<g id="node13" class="node">
<title>\\AdatkezelesView</title>
<polygon fill="none" stroke="#000000" points="656.5,-1186 538.5,-1186 538.5,-1150 656.5,-1150 656.5,-1186"/>
<text text-anchor="middle" x="597.5" y="-1165.2" font-family="Courier,monospace" font-size="11.00" fill="#000000">AdatkezelesView</text>
</g>
<!-- \\AdatkezelesView&#45;&gt;\\CommonView -->
<g id="edge8" class="edge">
<title>\\AdatkezelesView&#45;&gt;\\CommonView</title>
<path fill="none" stroke="#000000" d="M552.1495,-1149.9223C546.2728,-1147.1424 540.4188,-1144.1434 535,-1141 500.3999,-1120.9292 498.3606,-1105.6983 463,-1087 454.4413,-1082.4742 444.9704,-1078.472 435.6462,-1075.0283"/>
<polygon fill="none" stroke="#000000" points="436.6216,-1071.6612 426.0268,-1071.6431 434.2979,-1078.2643 436.6216,-1071.6612"/>
</g>
<!-- \\ImpresszumController -->
<g id="node14" class="node">
<title>\\ImpresszumController</title>
<polygon fill="none" stroke="#000000" points="460,-214 308,-214 308,-178 460,-178 460,-214"/>
<text text-anchor="middle" x="384" y="-193.2" font-family="Courier,monospace" font-size="11.00" fill="#000000">ImpresszumController</text>
</g>
<!-- \\ImpresszumController&#45;&gt;\\Controller -->
<g id="edge9" class="edge">
<title>\\ImpresszumController&#45;&gt;\\Controller</title>
<path fill="none" stroke="#000000" d="M325.0174,-214.1464C318.1529,-216.8457 311.3435,-219.8061 305,-223 273.4648,-238.8778 240.6299,-262.1769 217.7134,-279.7156"/>
<polygon fill="none" stroke="#000000" points="215.5021,-277.0012 209.74,-285.8921 219.7889,-282.535 215.5021,-277.0012"/>
</g>
<!-- \\AppregistView -->
<g id="node15" class="node">
<title>\\AppregistView</title>
<polygon fill="none" stroke="#000000" points="649.5,-1132 545.5,-1132 545.5,-1096 649.5,-1096 649.5,-1132"/>
<text text-anchor="middle" x="597.5" y="-1111.2" font-family="Courier,monospace" font-size="11.00" fill="#000000">AppregistView</text>
</g>
<!-- \\AppregistView&#45;&gt;\\CommonView -->
<g id="edge10" class="edge">
<title>\\AppregistView&#45;&gt;\\CommonView</title>
<path fill="none" stroke="#000000" d="M545.272,-1100.7901C512.0447,-1092.386 469.1838,-1081.5453 436.0006,-1073.1524"/>
<polygon fill="none" stroke="#000000" points="436.5873,-1069.6906 426.0344,-1070.6316 434.8709,-1076.4769 436.5873,-1069.6906"/>
</g>
<!-- \\Relation -->
<g id="node16" class="node">
<title>\\Relation</title>
<polygon fill="none" stroke="#000000" points="633,-754 562,-754 562,-718 633,-718 633,-754"/>
<text text-anchor="middle" x="597.5" y="-733.2" font-family="Courier,monospace" font-size="11.00" fill="#000000">Relation</text>
</g>
<!-- \\DB -->
<g id="node17" class="node">
<title>\\DB</title>
<polygon fill="none" stroke="#000000" points="70,-592 16,-592 16,-556 70,-556 70,-592"/>
<text text-anchor="middle" x="43" y="-571.2" font-family="Courier,monospace" font-size="11.00" fill="#000000">DB</text>
</g>
<!-- \\SimpleTable -->
<g id="node18" class="node">
<title>\\SimpleTable</title>
<polygon fill="none" stroke="#000000" points="233,-592 142,-592 142,-556 233,-556 233,-592"/>
<text text-anchor="middle" x="187.5" y="-571.2" font-family="Courier,monospace" font-size="11.00" fill="#000000">SimpleTable</text>
</g>
<!-- \\SimpleTable&#45;&gt;\\DB -->
<g id="edge11" class="edge">
<title>\\SimpleTable&#45;&gt;\\DB</title>
<path fill="none" stroke="#000000" d="M141.7793,-574C122.058,-574 99.2743,-574 80.5612,-574"/>
<polygon fill="none" stroke="#000000" points="80.3493,-570.5001 70.3492,-574 80.3492,-577.5001 80.3493,-570.5001"/>
</g>
<!-- \\Table -->
<g id="node19" class="node">
<title>\\Table</title>
<polygon fill="none" stroke="#000000" points="411,-592 357,-592 357,-556 411,-556 411,-592"/>
<text text-anchor="middle" x="384" y="-571.2" font-family="Courier,monospace" font-size="11.00" fill="#000000">Table</text>
</g>
<!-- \\Table&#45;&gt;\\SimpleTable -->
<g id="edge12" class="edge">
<title>\\Table&#45;&gt;\\SimpleTable</title>
<path fill="none" stroke="#000000" d="M356.6775,-574C327.4707,-574 280.3582,-574 243.2581,-574"/>
<polygon fill="none" stroke="#000000" points="243.0827,-570.5001 233.0827,-574 243.0826,-577.5001 243.0827,-570.5001"/>
</g>
<!-- \\Filter -->
<g id="node20" class="node">
<title>\\Filter</title>
<polygon fill="none" stroke="#000000" points="626,-538 569,-538 569,-502 626,-502 626,-538"/>
<text text-anchor="middle" x="597.5" y="-517.2" font-family="Courier,monospace" font-size="11.00" fill="#000000">Filter</text>
</g>
<!-- \\Filter&#45;&gt;\\Table -->
<g id="edge13" class="edge">
<title>\\Filter&#45;&gt;\\Table</title>
<path fill="none" stroke="#000000" d="M568.7064,-527.2827C530.5366,-536.9369 463.1289,-553.9861 421.1586,-564.6016"/>
<polygon fill="none" stroke="#000000" points="420.1629,-561.2431 411.3264,-567.0884 421.8793,-568.0294 420.1629,-561.2431"/>
</g>
<!-- \\TxtController -->
<g id="node21" class="node">
<title>\\TxtController</title>
<polygon fill="none" stroke="#000000" points="436,-160 332,-160 332,-124 436,-124 436,-160"/>
<text text-anchor="middle" x="384" y="-139.2" font-family="Courier,monospace" font-size="11.00" fill="#000000">TxtController</text>
</g>
<!-- \\TxtController&#45;&gt;\\Controller -->
<g id="edge14" class="edge">
<title>\\TxtController&#45;&gt;\\Controller</title>
<path fill="none" stroke="#000000" d="M331.9938,-155.3991C322.5869,-159.0175 313.179,-163.5004 305,-169 261.8186,-198.0351 224.85,-246.8547 204.445,-277.1483"/>
<polygon fill="none" stroke="#000000" points="201.4918,-275.2689 198.8965,-285.541 207.3311,-279.1294 201.4918,-275.2689"/>
</g>
<!-- \\AppRecord -->
<g id="node22" class="node">
<title>\\AppRecord</title>
<polygon fill="none" stroke="#000000" points="636,-646 559,-646 559,-610 636,-610 636,-646"/>
<text text-anchor="middle" x="597.5" y="-625.2" font-family="Courier,monospace" font-size="11.00" fill="#000000">AppRecord</text>
</g>
<!-- \\AppregistModel -->
<g id="node23" class="node">
<title>\\AppregistModel</title>
<polygon fill="none" stroke="#000000" points="653,-214 542,-214 542,-178 653,-178 653,-214"/>
<text text-anchor="middle" x="597.5" y="-193.2" font-family="Courier,monospace" font-size="11.00" fill="#000000">AppregistModel</text>
</g>
<!-- \\Model -->
<g id="node40" class="node">
<title>\\Model</title>
<polygon fill="none" stroke="#000000" points="411,-268 357,-268 357,-232 411,-232 411,-268"/>
<text text-anchor="middle" x="384" y="-247.2" font-family="Courier,monospace" font-size="11.00" fill="#000000">Model</text>
</g>
<!-- \\AppregistModel&#45;&gt;\\Model -->
<g id="edge15" class="edge">
<title>\\AppregistModel&#45;&gt;\\Model</title>
<path fill="none" stroke="#000000" d="M541.9627,-210.0469C503.893,-219.6758 454.4349,-232.1851 421.0835,-240.6206"/>
<polygon fill="none" stroke="#000000" points="420.117,-237.2547 411.2805,-243.1 421.8335,-244.041 420.117,-237.2547"/>
</g>
<!-- \\PdfformView -->
<g id="node24" class="node">
<title>\\PdfformView</title>
<polygon fill="none" stroke="#000000" points="429.5,-1132 338.5,-1132 338.5,-1096 429.5,-1096 429.5,-1132"/>
<text text-anchor="middle" x="384" y="-1111.2" font-family="Courier,monospace" font-size="11.00" fill="#000000">PdfformView</text>
</g>
<!-- \\View -->
<g id="node41" class="node">
<title>\\View</title>
<polygon fill="none" stroke="#000000" points="214.5,-1105 160.5,-1105 160.5,-1069 214.5,-1069 214.5,-1105"/>
<text text-anchor="middle" x="187.5" y="-1084.2" font-family="Courier,monospace" font-size="11.00" fill="#000000">View</text>
</g>
<!-- \\PdfformView&#45;&gt;\\View -->
<g id="edge16" class="edge">
<title>\\PdfformView&#45;&gt;\\View</title>
<path fill="none" stroke="#000000" d="M338.425,-1107.7378C303.8465,-1102.9865 256.9091,-1096.5371 224.607,-1092.0987"/>
<polygon fill="none" stroke="#000000" points="225.0511,-1088.6269 214.6677,-1090.733 224.0981,-1095.5617 225.0511,-1088.6269"/>
</g>
<!-- \\IssuController -->
<g id="node25" class="node">
<title>\\IssuController</title>
<polygon fill="none" stroke="#000000" points="439.5,-106 328.5,-106 328.5,-70 439.5,-70 439.5,-106"/>
<text text-anchor="middle" x="384" y="-85.2" font-family="Courier,monospace" font-size="11.00" fill="#000000">IssuController</text>
</g>
<!-- \\IssuController&#45;&gt;\\Controller -->
<g id="edge17" class="edge">
<title>\\IssuController&#45;&gt;\\Controller</title>
<path fill="none" stroke="#000000" d="M328.363,-101.5511C320.0267,-105.0821 311.9194,-109.4961 305,-115 250.1095,-158.662 213.9824,-235.4379 197.6091,-276.41"/>
<polygon fill="none" stroke="#000000" points="194.3292,-275.1874 193.9625,-285.7759 200.8523,-277.7272 194.3292,-275.1874"/>
</g>
<!-- \\ReadmeView -->
<g id="node26" class="node">
<title>\\ReadmeView</title>
<polygon fill="none" stroke="#000000" points="639.5,-1024 555.5,-1024 555.5,-988 639.5,-988 639.5,-1024"/>
<text text-anchor="middle" x="597.5" y="-1003.2" font-family="Courier,monospace" font-size="11.00" fill="#000000">ReadmeView</text>
</g>
<!-- \\ReadmeView&#45;&gt;\\CommonView -->
<g id="edge18" class="edge">
<title>\\ReadmeView&#45;&gt;\\CommonView</title>
<path fill="none" stroke="#000000" d="M555.3193,-1016.6687C521.1064,-1025.322 472.7197,-1037.5604 436.091,-1046.8248"/>
<polygon fill="none" stroke="#000000" points="434.9296,-1043.5082 426.0931,-1049.3535 436.6461,-1050.2945 434.9296,-1043.5082"/>
</g>
<!-- \\AppregistController -->
<g id="node27" class="node">
<title>\\AppregistController</title>
<polygon fill="none" stroke="#000000" points="456.5,-52 311.5,-52 311.5,-16 456.5,-16 456.5,-52"/>
<text text-anchor="middle" x="384" y="-31.2" font-family="Courier,monospace" font-size="11.00" fill="#000000">AppregistController</text>
</g>
<!-- \\AppregistController&#45;&gt;\\Controller -->
<g id="edge19" class="edge">
<title>\\AppregistController&#45;&gt;\\Controller</title>
<path fill="none" stroke="#000000" d="M317.5167,-52.1038C313.0334,-54.6879 308.7976,-57.6364 305,-61 238.1903,-120.1742 205.7547,-225.7961 193.5248,-276.0042"/>
<polygon fill="none" stroke="#000000" points="190.0939,-275.3051 191.2167,-285.8403 196.9087,-276.9043 190.0939,-275.3051"/>
</g>
<!-- \\OpenidUserController -->
<g id="node28" class="node">
<title>\\OpenidUserController</title>
<polygon fill="none" stroke="#000000" points="460,-376 308,-376 308,-340 460,-340 460,-376"/>
<text text-anchor="middle" x="384" y="-355.2" font-family="Courier,monospace" font-size="11.00" fill="#000000">OpenidUserController</text>
</g>
<!-- \\OpenidUserController&#45;&gt;\\Controller -->
<g id="edge20" class="edge">
<title>\\OpenidUserController&#45;&gt;\\Controller</title>
<path fill="none" stroke="#000000" d="M318.2952,-339.9437C292.6035,-332.8834 263.5647,-324.9033 239.3864,-318.2589"/>
<polygon fill="none" stroke="#000000" points="240.2609,-314.8695 229.6909,-315.5945 238.406,-321.6193 240.2609,-314.8695"/>
</g>
<!-- \\OpenidController -->
<g id="node29" class="node">
<title>\\OpenidController</title>
<polygon fill="none" stroke="#000000" points="660,-484 535,-484 535,-448 660,-448 660,-484"/>
<text text-anchor="middle" x="597.5" y="-463.2" font-family="Courier,monospace" font-size="11.00" fill="#000000">OpenidController</text>
</g>
<!-- \\OpenidController&#45;&gt;\\OpenidUserController -->
<g id="edge21" class="edge">
<title>\\OpenidController&#45;&gt;\\OpenidUserController</title>
<path fill="none" stroke="#000000" d="M552.1495,-447.9223C546.2728,-445.1424 540.4188,-442.1434 535,-439 500.3999,-418.9292 498.3606,-403.6983 463,-385 459.7327,-383.2723 456.3324,-381.6208 452.8581,-380.0476"/>
<polygon fill="none" stroke="#000000" points="454.1004,-376.7725 443.529,-376.0674 451.3534,-383.211 454.1004,-376.7725"/>
</g>
<!-- \\AdatkezelesController -->
<g id="node30" class="node">
<title>\\AdatkezelesController</title>
<polygon fill="none" stroke="#000000" points="463,-538 305,-538 305,-502 463,-502 463,-538"/>
<text text-anchor="middle" x="384" y="-517.2" font-family="Courier,monospace" font-size="11.00" fill="#000000">AdatkezelesController</text>
</g>
<!-- \\AdatkezelesController&#45;&gt;\\Controller -->
<g id="edge22" class="edge">
<title>\\AdatkezelesController&#45;&gt;\\Controller</title>
<path fill="none" stroke="#000000" d="M318.6882,-501.8585C313.8311,-499.2759 309.197,-496.3385 305,-493 250.1095,-449.338 213.9824,-372.5621 197.6091,-331.59"/>
<polygon fill="none" stroke="#000000" points="200.8523,-330.2728 193.9625,-322.2241 194.3292,-332.8126 200.8523,-330.2728"/>
</g>
<!-- \\IssuRecord -->
<g id="node31" class="node">
<title>\\IssuRecord</title>
<polygon fill="none" stroke="#000000" points="639.5,-430 555.5,-430 555.5,-394 639.5,-394 639.5,-430"/>
<text text-anchor="middle" x="597.5" y="-409.2" font-family="Courier,monospace" font-size="11.00" fill="#000000">IssuRecord</text>
</g>
<!-- \\IssuModel -->
<g id="node32" class="node">
<title>\\IssuModel</title>
<polygon fill="none" stroke="#000000" points="636,-376 559,-376 559,-340 636,-340 636,-376"/>
<text text-anchor="middle" x="597.5" y="-355.2" font-family="Courier,monospace" font-size="11.00" fill="#000000">IssuModel</text>
</g>
<!-- \\PdfData -->
<g id="node33" class="node">
<title>\\PdfData</title>
<polygon fill="none" stroke="#000000" points="629.5,-322 565.5,-322 565.5,-286 629.5,-286 629.5,-322"/>
<text text-anchor="middle" x="597.5" y="-301.2" font-family="Courier,monospace" font-size="11.00" fill="#000000">PdfData</text>
</g>
<!-- \\PdfparserModel -->
<g id="node34" class="node">
<title>\\PdfparserModel</title>
<polygon fill="none" stroke="#000000" points="653,-268 542,-268 542,-232 653,-232 653,-268"/>
<text text-anchor="middle" x="597.5" y="-247.2" font-family="Courier,monospace" font-size="11.00" fill="#000000">PdfparserModel</text>
</g>
<!-- \\DefaultController -->
<g id="node35" class="node">
<title>\\DefaultController</title>
<polygon fill="none" stroke="#000000" points="449.5,-484 318.5,-484 318.5,-448 449.5,-448 449.5,-484"/>
<text text-anchor="middle" x="384" y="-463.2" font-family="Courier,monospace" font-size="11.00" fill="#000000">DefaultController</text>
</g>
<!-- \\DefaultController&#45;&gt;\\Controller -->
<g id="edge23" class="edge">
<title>\\DefaultController&#45;&gt;\\Controller</title>
<path fill="none" stroke="#000000" d="M320.865,-447.8723C315.3097,-445.2623 309.9315,-442.3159 305,-439 261.8186,-409.9649 224.85,-361.1453 204.445,-330.8517"/>
<polygon fill="none" stroke="#000000" points="207.3311,-328.8706 198.8965,-322.459 201.4918,-332.7311 207.3311,-328.8706"/>
</g>
<!-- \\AdomanyController -->
<g id="node36" class="node">
<title>\\AdomanyController</title>
<polygon fill="none" stroke="#000000" points="449.5,-430 318.5,-430 318.5,-394 449.5,-394 449.5,-430"/>
<text text-anchor="middle" x="384" y="-409.2" font-family="Courier,monospace" font-size="11.00" fill="#000000">AdomanyController</text>
</g>
<!-- \\AdomanyController&#45;&gt;\\Controller -->
<g id="edge24" class="edge">
<title>\\AdomanyController&#45;&gt;\\Controller</title>
<path fill="none" stroke="#000000" d="M325.0174,-393.8536C318.1529,-391.1543 311.3435,-388.1939 305,-385 273.4648,-369.1222 240.6299,-345.8231 217.7134,-328.2844"/>
<polygon fill="none" stroke="#000000" points="219.7889,-325.465 209.74,-322.1079 215.5021,-330.9988 219.7889,-325.465"/>
</g>
<!-- \\BrowserView -->
<g id="node37" class="node">
<title>\\BrowserView</title>
<polygon fill="none" stroke="#000000" points="643,-862 552,-862 552,-826 643,-826 643,-862"/>
<text text-anchor="middle" x="597.5" y="-841.2" font-family="Courier,monospace" font-size="11.00" fill="#000000">BrowserView</text>
</g>
<!-- \\BrowserView&#45;&gt;\\CommonView -->
<g id="edge25" class="edge">
<title>\\BrowserView&#45;&gt;\\CommonView</title>
<path fill="none" stroke="#000000" d="M551.9699,-860.4992C545.9978,-863.5575 540.1665,-867.0541 535,-871 474.3077,-917.3537 423.6518,-993.2122 399.3952,-1033.2747"/>
<polygon fill="none" stroke="#000000" points="396.3345,-1031.5736 394.215,-1041.9542 402.3454,-1035.161 396.3345,-1031.5736"/>
</g>
<!-- \\Params -->
<g id="node38" class="node">
<title>\\Params</title>
<polygon fill="none" stroke="#000000" points="626,-160 569,-160 569,-124 626,-124 626,-160"/>
<text text-anchor="middle" x="597.5" y="-139.2" font-family="Courier,monospace" font-size="11.00" fill="#000000">Params</text>
</g>
<!-- \\GetRecordsResult -->
<g id="node39" class="node">
<title>\\GetRecordsResult</title>
<polygon fill="none" stroke="#000000" points="660,-106 535,-106 535,-70 660,-70 660,-106"/>
<text text-anchor="middle" x="597.5" y="-85.2" font-family="Courier,monospace" font-size="11.00" fill="#000000">GetRecordsResult</text>
</g>
<!-- \\Request -->
<g id="node43" class="node">
<title>\\Request</title>
<polygon fill="none" stroke="#000000" points="629.5,-52 565.5,-52 565.5,-16 629.5,-16 629.5,-52"/>
<text text-anchor="middle" x="597.5" y="-31.2" font-family="Courier,monospace" font-size="11.00" fill="#000000">Request</text>
</g>
<!-- \\CommonView&#45;&gt;\\View -->
<g id="edge26" class="edge">
<title>\\CommonView&#45;&gt;\\View</title>
<path fill="none" stroke="#000000" d="M341.8458,-1065.7922C307.1466,-1070.56 258.4089,-1077.2568 225.0386,-1081.842"/>
<polygon fill="none" stroke="#000000" points="224.2118,-1078.4227 214.7813,-1083.2514 225.1647,-1085.3575 224.2118,-1078.4227"/>
</g>
</g>
</svg>
