<?xml version="1.0" encoding="UTF-8" standalone="no"?>
<!DOCTYPE svg PUBLIC "-//W3C//DTD SVG 1.1//EN"
 "http://www.w3.org/Graphics/SVG/1.1/DTD/svg11.dtd">
<!-- Generated by graphviz version 2.40.1 (20161225.0304)
 -->
<!-- Title: G Pages: 1 -->
<svg width="684pt" height="1770pt"
 viewBox="0.00 0.00 684.00 1770.00" xmlns="http://www.w3.org/2000/svg" xmlns:xlink="http://www.w3.org/1999/xlink">
<g id="graph0" class="graph" transform="scale(1 1) rotate(0) translate(4 1766)">
<title>G</title>
<polygon fill="#ffffff" stroke="transparent" points="-4,4 -4,-1766 680,-1766 680,4 -4,4"/>
<g id="clust1" class="cluster">
<title>cluster_Global</title>
<path fill="none" stroke="#c0c0c0" d="M20,-8C20,-8 656,-8 656,-8 662,-8 668,-14 668,-20 668,-20 668,-1742 668,-1742 668,-1748 662,-1754 656,-1754 656,-1754 20,-1754 20,-1754 14,-1754 8,-1748 8,-1742 8,-1742 8,-20 8,-20 8,-14 14,-8 20,-8"/>
<text text-anchor="middle" x="338" y="-1741.2" font-family="Times,serif" font-size="11.00" fill="#c0c0c0">Global</text>
</g>
<!-- \\ReadmeController -->
<g id="node1" class="node">
<title>\\ReadmeController</title>
<polygon fill="none" stroke="#000000" points="446.5,-808 321.5,-808 321.5,-772 446.5,-772 446.5,-808"/>
<text text-anchor="middle" x="384" y="-787.2" font-family="Courier,monospace" font-size="11.00" fill="#000000">ReadmeController</text>
</g>
<!-- \\Controller -->
<g id="node42" class="node">
<title>\\Controller</title>
<polygon fill="none" stroke="#000000" points="229.5,-511 145.5,-511 145.5,-475 229.5,-475 229.5,-511"/>
<text text-anchor="middle" x="187.5" y="-490.2" font-family="Courier,monospace" font-size="11.00" fill="#000000">Controller</text>
</g>
<!-- \\ReadmeController&#45;&gt;\\Controller -->
<g id="edge1" class="edge">
<title>\\ReadmeController&#45;&gt;\\Controller</title>
<path fill="none" stroke="#000000" d="M321.2377,-774.2199C315.3458,-771.1223 309.7953,-767.4212 305,-763 232.0622,-695.7527 202.185,-575.3044 191.9974,-520.9576"/>
<polygon fill="none" stroke="#000000" points="195.4231,-520.2315 190.2154,-511.0049 188.5327,-521.4652 195.4231,-520.2315"/>
</g>
<!-- \\IssuView -->
<g id="node2" class="node">
<title>\\IssuView</title>
<polygon fill="none" stroke="#000000" points="633,-1132 562,-1132 562,-1096 633,-1096 633,-1132"/>
<text text-anchor="middle" x="597.5" y="-1111.2" font-family="Courier,monospace" font-size="11.00" fill="#000000">IssuView</text>
</g>
<!-- \\CommonView -->
<g id="node44" class="node">
<title>\\CommonView</title>
<polygon fill="none" stroke="#000000" points="426,-1186 342,-1186 342,-1150 426,-1150 426,-1186"/>
<text text-anchor="middle" x="384" y="-1165.2" font-family="Courier,monospace" font-size="11.00" fill="#000000">CommonView</text>
</g>
<!-- \\IssuView&#45;&gt;\\CommonView -->
<g id="edge2" class="edge">
<title>\\IssuView&#45;&gt;\\CommonView</title>
<path fill="none" stroke="#000000" d="M561.7649,-1123.0384C527.4394,-1131.7202 475.1857,-1144.9366 436.2027,-1154.7965"/>
<polygon fill="none" stroke="#000000" points="434.9286,-1151.5085 426.0921,-1157.3538 436.6451,-1158.2948 434.9286,-1151.5085"/>
</g>
<!-- \\JweModel -->
<g id="node3" class="node">
<title>\\JweModel</title>
<polygon fill="none" stroke="#000000" points="633,-1672 562,-1672 562,-1636 633,-1636 633,-1672"/>
<text text-anchor="middle" x="597.5" y="-1651.2" font-family="Courier,monospace" font-size="11.00" fill="#000000">JweModel</text>
</g>
<!-- \\JwtModel -->
<g id="node4" class="node">
<title>\\JwtModel</title>
<polygon fill="none" stroke="#000000" points="633,-1618 562,-1618 562,-1582 633,-1582 633,-1618"/>
<text text-anchor="middle" x="597.5" y="-1597.2" font-family="Courier,monospace" font-size="11.00" fill="#000000">JwtModel</text>
</g>
<!-- \\AdomanyView -->
<g id="node5" class="node">
<title>\\AdomanyView</title>
<polygon fill="none" stroke="#000000" points="643,-1078 552,-1078 552,-1042 643,-1042 643,-1078"/>
<text text-anchor="middle" x="597.5" y="-1057.2" font-family="Courier,monospace" font-size="11.00" fill="#000000">AdomanyView</text>
</g>
<!-- \\AdomanyView&#45;&gt;\\CommonView -->
<g id="edge3" class="edge">
<title>\\AdomanyView&#45;&gt;\\CommonView</title>
<path fill="none" stroke="#000000" d="M552.1495,-1078.0777C546.2728,-1080.8576 540.4188,-1083.8566 535,-1087 500.3999,-1107.0708 498.3606,-1122.3017 463,-1141 454.4413,-1145.5258 444.9704,-1149.528 435.6462,-1152.9717"/>
<polygon fill="none" stroke="#000000" points="434.2979,-1149.7357 426.0268,-1156.3569 436.6216,-1156.3388 434.2979,-1149.7357"/>
</g>
<!-- \\FrontpageView -->
<g id="node6" class="node">
<title>\\FrontpageView</title>
<polygon fill="none" stroke="#000000" points="649.5,-970 545.5,-970 545.5,-934 649.5,-934 649.5,-970"/>
<text text-anchor="middle" x="597.5" y="-949.2" font-family="Courier,monospace" font-size="11.00" fill="#000000">FrontpageView</text>
</g>
<!-- \\FrontpageView&#45;&gt;\\CommonView -->
<g id="edge4" class="edge">
<title>\\FrontpageView&#45;&gt;\\CommonView</title>
<path fill="none" stroke="#000000" d="M546.2781,-970.1257C542.1969,-972.7287 538.3606,-975.6743 535,-979 478.9964,-1034.422 521.1341,-1087.8171 463,-1141 455.301,-1148.0433 445.6845,-1153.2604 435.838,-1157.1215"/>
<polygon fill="none" stroke="#000000" points="434.6692,-1153.8223 426.382,-1160.4232 436.9768,-1160.431 434.6692,-1153.8223"/>
</g>
<!-- \\ImpresszumView -->
<g id="node7" class="node">
<title>\\ImpresszumView</title>
<polygon fill="none" stroke="#000000" points="653,-862 542,-862 542,-826 653,-826 653,-862"/>
<text text-anchor="middle" x="597.5" y="-841.2" font-family="Courier,monospace" font-size="11.00" fill="#000000">ImpresszumView</text>
</g>
<!-- \\ImpresszumView&#45;&gt;\\CommonView -->
<g id="edge5" class="edge">
<title>\\ImpresszumView&#45;&gt;\\CommonView</title>
<path fill="none" stroke="#000000" d="M544.8112,-862.2008C541.1932,-864.7703 537.8567,-867.6886 535,-871 453.8765,-965.0371 547.7492,-1050.2168 463,-1141 455.6545,-1148.8684 445.9224,-1154.4439 435.8066,-1158.3945"/>
<polygon fill="none" stroke="#000000" points="434.3989,-1155.1762 426.0557,-1161.7062 436.6501,-1161.8043 434.3989,-1155.1762"/>
</g>
<!-- \\OpenidView -->
<g id="node8" class="node">
<title>\\OpenidView</title>
<polygon fill="none" stroke="#000000" points="639.5,-808 555.5,-808 555.5,-772 639.5,-772 639.5,-808"/>
<text text-anchor="middle" x="597.5" y="-787.2" font-family="Courier,monospace" font-size="11.00" fill="#000000">OpenidView</text>
</g>
<!-- \\OpenidView&#45;&gt;\\CommonView -->
<g id="edge6" class="edge">
<title>\\OpenidView&#45;&gt;\\CommonView</title>
<path fill="none" stroke="#000000" d="M555.4547,-801.6289C547.7389,-805.4357 540.4227,-810.441 535,-817 441.0071,-930.6897 561.3794,-1031.0841 463,-1141 455.8211,-1149.0207 446.1589,-1154.6601 436.0584,-1158.6247"/>
<polygon fill="none" stroke="#000000" points="434.6506,-1155.4064 426.3069,-1161.9358 436.9013,-1162.0348 434.6506,-1155.4064"/>
</g>
<!-- \\FrontpageModel -->
<g id="node9" class="node">
<title>\\FrontpageModel</title>
<polygon fill="none" stroke="#000000" points="653,-1348 542,-1348 542,-1312 653,-1312 653,-1348"/>
<text text-anchor="middle" x="597.5" y="-1327.2" font-family="Courier,monospace" font-size="11.00" fill="#000000">FrontpageModel</text>
</g>
<!-- \\MdView -->
<g id="node10" class="node">
<title>\\MdView</title>
<polygon fill="none" stroke="#000000" points="626,-754 569,-754 569,-718 626,-718 626,-754"/>
<text text-anchor="middle" x="597.5" y="-733.2" font-family="Courier,monospace" font-size="11.00" fill="#000000">MdView</text>
</g>
<!-- \\MdView&#45;&gt;\\CommonView -->
<g id="edge7" class="edge">
<title>\\MdView&#45;&gt;\\CommonView</title>
<path fill="none" stroke="#000000" d="M568.9217,-742.0007C556.7424,-745.9812 543.4268,-752.4854 535,-763 428.0475,-896.451 575.1041,-1011.8463 463,-1141 455.7986,-1149.2967 445.9361,-1155.0473 435.6196,-1159.0322"/>
<polygon fill="none" stroke="#000000" points="434.4573,-1155.7303 426.081,-1162.2178 436.6748,-1162.3698 434.4573,-1155.7303"/>
</g>
<!-- \\UserRecord -->
<g id="node11" class="node">
<title>\\UserRecord</title>
<polygon fill="none" stroke="#000000" points="639.5,-1240 555.5,-1240 555.5,-1204 639.5,-1204 639.5,-1240"/>
<text text-anchor="middle" x="597.5" y="-1219.2" font-family="Courier,monospace" font-size="11.00" fill="#000000">UserRecord</text>
</g>
<!-- \\OpenidModel -->
<g id="node12" class="node">
<title>\\OpenidModel</title>
<polygon fill="none" stroke="#000000" points="643,-1186 552,-1186 552,-1150 643,-1150 643,-1186"/>
<text text-anchor="middle" x="597.5" y="-1165.2" font-family="Courier,monospace" font-size="11.00" fill="#000000">OpenidModel</text>
</g>
<!-- \\AdatkezelesView -->
<g id="node13" class="node">
<title>\\AdatkezelesView</title>
<polygon fill="none" stroke="#000000" points="656.5,-484 538.5,-484 538.5,-448 656.5,-448 656.5,-484"/>
<text text-anchor="middle" x="597.5" y="-463.2" font-family="Courier,monospace" font-size="11.00" fill="#000000">AdatkezelesView</text>
</g>
<!-- \\AdatkezelesView&#45;&gt;\\CommonView -->
<g id="edge8" class="edge">
<title>\\AdatkezelesView&#45;&gt;\\CommonView</title>
<path fill="none" stroke="#000000" d="M543.6854,-484.1877C540.4157,-486.7527 537.4601,-489.674 535,-493 362.6859,-725.9718 644.3185,-914.9655 463,-1141 456.0562,-1149.6562 446.1997,-1155.5498 435.7939,-1159.5588"/>
<polygon fill="none" stroke="#000000" points="434.5532,-1156.2825 426.1508,-1162.7361 436.7438,-1162.9309 434.5532,-1156.2825"/>
</g>
<!-- \\ImpresszumController -->
<g id="node14" class="node">
<title>\\ImpresszumController</title>
<polygon fill="none" stroke="#000000" points="460,-700 308,-700 308,-664 460,-664 460,-700"/>
<text text-anchor="middle" x="384" y="-679.2" font-family="Courier,monospace" font-size="11.00" fill="#000000">ImpresszumController</text>
</g>
<!-- \\ImpresszumController&#45;&gt;\\Controller -->
<g id="edge9" class="edge">
<title>\\ImpresszumController&#45;&gt;\\Controller</title>
<path fill="none" stroke="#000000" d="M319.742,-663.9295C314.5412,-661.3212 309.5465,-658.359 305,-655 256.0851,-618.8608 219.1277,-556.403 200.6448,-520.514"/>
<polygon fill="none" stroke="#000000" points="203.549,-518.499 195.927,-511.1399 197.2963,-521.6459 203.549,-518.499"/>
</g>
<!-- \\AppregistView -->
<g id="node15" class="node">
<title>\\AppregistView</title>
<polygon fill="none" stroke="#000000" points="649.5,-1726 545.5,-1726 545.5,-1690 649.5,-1690 649.5,-1726"/>
<text text-anchor="middle" x="597.5" y="-1705.2" font-family="Courier,monospace" font-size="11.00" fill="#000000">AppregistView</text>
</g>
<!-- \\AppregistView&#45;&gt;\\CommonView -->
<g id="edge10" class="edge">
<title>\\AppregistView&#45;&gt;\\CommonView</title>
<path fill="none" stroke="#000000" d="M545.4963,-1690.1289C541.6308,-1687.478 538.0556,-1684.4515 535,-1681 468.4908,-1605.8743 406.6468,-1291.8997 389.0035,-1195.9644"/>
<polygon fill="none" stroke="#000000" points="392.4453,-1195.3283 387.2077,-1186.1186 385.5589,-1196.5844 392.4453,-1195.3283"/>
</g>
<!-- \\Relation -->
<g id="node16" class="node">
<title>\\Relation</title>
<polygon fill="none" stroke="#000000" points="633,-1024 562,-1024 562,-988 633,-988 633,-1024"/>
<text text-anchor="middle" x="597.5" y="-1003.2" font-family="Courier,monospace" font-size="11.00" fill="#000000">Relation</text>
</g>
<!-- \\DB -->
<g id="node17" class="node">
<title>\\DB</title>
<polygon fill="none" stroke="#000000" points="70,-1078 16,-1078 16,-1042 70,-1042 70,-1078"/>
<text text-anchor="middle" x="43" y="-1057.2" font-family="Courier,monospace" font-size="11.00" fill="#000000">DB</text>
</g>
<!-- \\SimpleTable -->
<g id="node18" class="node">
<title>\\SimpleTable</title>
<polygon fill="none" stroke="#000000" points="233,-1078 142,-1078 142,-1042 233,-1042 233,-1078"/>
<text text-anchor="middle" x="187.5" y="-1057.2" font-family="Courier,monospace" font-size="11.00" fill="#000000">SimpleTable</text>
</g>
<!-- \\SimpleTable&#45;&gt;\\DB -->
<g id="edge11" class="edge">
<title>\\SimpleTable&#45;&gt;\\DB</title>
<path fill="none" stroke="#000000" d="M141.7793,-1060C122.058,-1060 99.2743,-1060 80.5612,-1060"/>
<polygon fill="none" stroke="#000000" points="80.3493,-1056.5001 70.3492,-1060 80.3492,-1063.5001 80.3493,-1056.5001"/>
</g>
<!-- \\Table -->
<g id="node19" class="node">
<title>\\Table</title>
<polygon fill="none" stroke="#000000" points="411,-1078 357,-1078 357,-1042 411,-1042 411,-1078"/>
<text text-anchor="middle" x="384" y="-1057.2" font-family="Courier,monospace" font-size="11.00" fill="#000000">Table</text>
</g>
<!-- \\Table&#45;&gt;\\SimpleTable -->
<g id="edge12" class="edge">
<title>\\Table&#45;&gt;\\SimpleTable</title>
<path fill="none" stroke="#000000" d="M356.6775,-1060C327.4707,-1060 280.3582,-1060 243.2581,-1060"/>
<polygon fill="none" stroke="#000000" points="243.0827,-1056.5001 233.0827,-1060 243.0826,-1063.5001 243.0827,-1056.5001"/>
</g>
<!-- \\Filter -->
<g id="node20" class="node">
<title>\\Filter</title>
<polygon fill="none" stroke="#000000" points="626,-160 569,-160 569,-124 626,-124 626,-160"/>
<text text-anchor="middle" x="597.5" y="-139.2" font-family="Courier,monospace" font-size="11.00" fill="#000000">Filter</text>
</g>
<!-- \\Filter&#45;&gt;\\Table -->
<g id="edge13" class="edge">
<title>\\Filter&#45;&gt;\\Table</title>
<path fill="none" stroke="#000000" d="M568.7243,-147.5035C556.3499,-151.3917 542.9319,-157.9614 535,-169 422.5727,-325.4612 581.4771,-881.0685 463,-1033 452.9102,-1045.9389 436.2961,-1052.7142 420.9008,-1056.247"/>
<polygon fill="none" stroke="#000000" points="420.2053,-1052.8164 411.0406,-1058.1324 421.5201,-1059.6919 420.2053,-1052.8164"/>
</g>
<!-- \\TxtController -->
<g id="node21" class="node">
<title>\\TxtController</title>
<polygon fill="none" stroke="#000000" points="436,-646 332,-646 332,-610 436,-610 436,-646"/>
<text text-anchor="middle" x="384" y="-625.2" font-family="Courier,monospace" font-size="11.00" fill="#000000">TxtController</text>
</g>
<!-- \\TxtController&#45;&gt;\\Controller -->
<g id="edge14" class="edge">
<title>\\TxtController&#45;&gt;\\Controller</title>
<path fill="none" stroke="#000000" d="M331.6341,-613.5361C322.457,-610.0502 313.2231,-605.888 305,-601 267.5531,-578.7406 231.7824,-543.0855 209.754,-518.8854"/>
<polygon fill="none" stroke="#000000" points="212.1071,-516.2666 202.8277,-511.1534 206.8931,-520.9372 212.1071,-516.2666"/>
</g>
<!-- \\AppRecord -->
<g id="node22" class="node">
<title>\\AppRecord</title>
<polygon fill="none" stroke="#000000" points="636,-916 559,-916 559,-880 636,-880 636,-916"/>
<text text-anchor="middle" x="597.5" y="-895.2" font-family="Courier,monospace" font-size="11.00" fill="#000000">AppRecord</text>
</g>
<!-- \\AppregistModel -->
<g id="node23" class="node">
<title>\\AppregistModel</title>
<polygon fill="none" stroke="#000000" points="653,-52 542,-52 542,-16 653,-16 653,-52"/>
<text text-anchor="middle" x="597.5" y="-31.2" font-family="Courier,monospace" font-size="11.00" fill="#000000">AppregistModel</text>
</g>
<!-- \\Model -->
<g id="node40" class="node">
<title>\\Model</title>
<polygon fill="none" stroke="#000000" points="411,-754 357,-754 357,-718 411,-718 411,-754"/>
<text text-anchor="middle" x="384" y="-733.2" font-family="Courier,monospace" font-size="11.00" fill="#000000">Model</text>
</g>
<!-- \\AppregistModel&#45;&gt;\\Model -->
<g id="edge15" class="edge">
<title>\\AppregistModel&#45;&gt;\\Model</title>
<path fill="none" stroke="#000000" d="M543.6854,-52.1877C540.4157,-54.7527 537.4601,-57.674 535,-61 362.6859,-293.9718 644.3185,-482.9655 463,-709 452.9046,-721.5851 436.6524,-728.3305 421.5063,-731.9353"/>
<polygon fill="none" stroke="#000000" points="420.4144,-728.5836 411.2864,-733.9623 421.7763,-735.4498 420.4144,-728.5836"/>
</g>
<!-- \\PdfformView -->
<g id="node24" class="node">
<title>\\PdfformView</title>
<polygon fill="none" stroke="#000000" points="429.5,-1132 338.5,-1132 338.5,-1096 429.5,-1096 429.5,-1132"/>
<text text-anchor="middle" x="384" y="-1111.2" font-family="Courier,monospace" font-size="11.00" fill="#000000">PdfformView</text>
</g>
<!-- \\View -->
<g id="node41" class="node">
<title>\\View</title>
<polygon fill="none" stroke="#000000" points="214.5,-1159 160.5,-1159 160.5,-1123 214.5,-1123 214.5,-1159"/>
<text text-anchor="middle" x="187.5" y="-1138.2" font-family="Courier,monospace" font-size="11.00" fill="#000000">View</text>
</g>
<!-- \\PdfformView&#45;&gt;\\View -->
<g id="edge16" class="edge">
<title>\\PdfformView&#45;&gt;\\View</title>
<path fill="none" stroke="#000000" d="M338.425,-1120.2622C303.8465,-1125.0135 256.9091,-1131.4629 224.607,-1135.9013"/>
<polygon fill="none" stroke="#000000" points="224.0981,-1132.4383 214.6677,-1137.267 225.0511,-1139.3731 224.0981,-1132.4383"/>
</g>
<!-- \\IssuController -->
<g id="node25" class="node">
<title>\\IssuController</title>
<polygon fill="none" stroke="#000000" points="439.5,-592 328.5,-592 328.5,-556 439.5,-556 439.5,-592"/>
<text text-anchor="middle" x="384" y="-571.2" font-family="Courier,monospace" font-size="11.00" fill="#000000">IssuController</text>
</g>
<!-- \\IssuController&#45;&gt;\\Controller -->
<g id="edge17" class="edge">
<title>\\IssuController&#45;&gt;\\Controller</title>
<path fill="none" stroke="#000000" d="M328.9134,-555.9755C320.8443,-553.1035 312.6722,-550.0649 305,-547 281.1183,-537.4598 255.0832,-525.6455 233.6032,-515.5024"/>
<polygon fill="none" stroke="#000000" points="234.9224,-512.2542 224.3882,-511.1219 231.9171,-518.5762 234.9224,-512.2542"/>
</g>
<!-- \\ReadmeView -->
<g id="node26" class="node">
<title>\\ReadmeView</title>
<polygon fill="none" stroke="#000000" points="639.5,-1564 555.5,-1564 555.5,-1528 639.5,-1528 639.5,-1564"/>
<text text-anchor="middle" x="597.5" y="-1543.2" font-family="Courier,monospace" font-size="11.00" fill="#000000">ReadmeView</text>
</g>
<!-- \\ReadmeView&#45;&gt;\\CommonView -->
<g id="edge18" class="edge">
<title>\\ReadmeView&#45;&gt;\\CommonView</title>
<path fill="none" stroke="#000000" d="M555.3982,-1533.0656C547.9592,-1529.3931 540.7626,-1524.7714 535,-1519 440.6498,-1424.5065 401.3161,-1261.5999 388.8138,-1196.2902"/>
<polygon fill="none" stroke="#000000" points="392.23,-1195.5159 386.9704,-1186.3188 385.3467,-1196.7885 392.23,-1195.5159"/>
</g>
<!-- \\AppregistController -->
<g id="node27" class="node">
<title>\\AppregistController</title>
<polygon fill="none" stroke="#000000" points="456.5,-538 311.5,-538 311.5,-502 456.5,-502 456.5,-538"/>
<text text-anchor="middle" x="384" y="-517.2" font-family="Courier,monospace" font-size="11.00" fill="#000000">AppregistController</text>
</g>
<!-- \\AppregistController&#45;&gt;\\Controller -->
<g id="edge19" class="edge">
<title>\\AppregistController&#45;&gt;\\Controller</title>
<path fill="none" stroke="#000000" d="M311.3889,-510.0229C287.6052,-506.7549 261.6661,-503.1908 239.6972,-500.1721"/>
<polygon fill="none" stroke="#000000" points="239.966,-496.6763 229.5826,-498.7823 239.013,-503.6111 239.966,-496.6763"/>
</g>
<!-- \\OpenidUserController -->
<g id="node28" class="node">
<title>\\OpenidUserController</title>
<polygon fill="none" stroke="#000000" points="460,-862 308,-862 308,-826 460,-826 460,-862"/>
<text text-anchor="middle" x="384" y="-841.2" font-family="Courier,monospace" font-size="11.00" fill="#000000">OpenidUserController</text>
</g>
<!-- \\OpenidUserController&#45;&gt;\\Controller -->
<g id="edge20" class="edge">
<title>\\OpenidUserController&#45;&gt;\\Controller</title>
<path fill="none" stroke="#000000" d="M316.3701,-825.8576C312.2595,-823.286 308.4134,-820.3506 305,-817 220.0047,-733.5692 196.1472,-584.0017 189.7387,-521.5835"/>
<polygon fill="none" stroke="#000000" points="193.1935,-520.9404 188.7636,-511.3161 186.2248,-521.6023 193.1935,-520.9404"/>
</g>
<!-- \\OpenidController -->
<g id="node29" class="node">
<title>\\OpenidController</title>
<polygon fill="none" stroke="#000000" points="660,-106 535,-106 535,-70 660,-70 660,-106"/>
<text text-anchor="middle" x="597.5" y="-85.2" font-family="Courier,monospace" font-size="11.00" fill="#000000">OpenidController</text>
</g>
<!-- \\OpenidController&#45;&gt;\\OpenidUserController -->
<g id="edge21" class="edge">
<title>\\OpenidController&#45;&gt;\\OpenidUserController</title>
<path fill="none" stroke="#000000" d="M543.654,-106.1645C540.3914,-108.7348 537.446,-111.6636 535,-115 349.562,-367.9441 658.2156,-571.5232 463,-817 462.408,-817.7445 461.7944,-818.4685 461.1607,-819.1727"/>
<polygon fill="none" stroke="#000000" points="458.7156,-816.6654 453.6717,-825.9826 463.4249,-821.8444 458.7156,-816.6654"/>
</g>
<!-- \\AdatkezelesController -->
<g id="node30" class="node">
<title>\\AdatkezelesController</title>
<polygon fill="none" stroke="#000000" points="463,-484 305,-484 305,-448 463,-448 463,-484"/>
<text text-anchor="middle" x="384" y="-463.2" font-family="Courier,monospace" font-size="11.00" fill="#000000">AdatkezelesController</text>
</g>
<!-- \\AdatkezelesController&#45;&gt;\\Controller -->
<g id="edge22" class="edge">
<title>\\AdatkezelesController&#45;&gt;\\Controller</title>
<path fill="none" stroke="#000000" d="M304.9253,-476.8652C283.039,-479.8725 259.8318,-483.0613 239.879,-485.8029"/>
<polygon fill="none" stroke="#000000" points="239.1963,-482.3637 229.7659,-487.1925 240.1493,-489.2986 239.1963,-482.3637"/>
</g>
<!-- \\IssuRecord -->
<g id="node31" class="node">
<title>\\IssuRecord</title>
<polygon fill="none" stroke="#000000" points="639.5,-700 555.5,-700 555.5,-664 639.5,-664 639.5,-700"/>
<text text-anchor="middle" x="597.5" y="-679.2" font-family="Courier,monospace" font-size="11.00" fill="#000000">IssuRecord</text>
</g>
<!-- \\IssuModel -->
<g id="node32" class="node">
<title>\\IssuModel</title>
<polygon fill="none" stroke="#000000" points="636,-646 559,-646 559,-610 636,-610 636,-646"/>
<text text-anchor="middle" x="597.5" y="-625.2" font-family="Courier,monospace" font-size="11.00" fill="#000000">IssuModel</text>
</g>
<!-- \\PdfData -->
<g id="node33" class="node">
<title>\\PdfData</title>
<polygon fill="none" stroke="#000000" points="629.5,-592 565.5,-592 565.5,-556 629.5,-556 629.5,-592"/>
<text text-anchor="middle" x="597.5" y="-571.2" font-family="Courier,monospace" font-size="11.00" fill="#000000">PdfData</text>
</g>
<!-- \\PdfparserModel -->
<g id="node34" class="node">
<title>\\PdfparserModel</title>
<polygon fill="none" stroke="#000000" points="653,-538 542,-538 542,-502 653,-502 653,-538"/>
<text text-anchor="middle" x="597.5" y="-517.2" font-family="Courier,monospace" font-size="11.00" fill="#000000">PdfparserModel</text>
</g>
<!-- \\DefaultController -->
<g id="node35" class="node">
<title>\\DefaultController</title>
<polygon fill="none" stroke="#000000" points="449.5,-430 318.5,-430 318.5,-394 449.5,-394 449.5,-430"/>
<text text-anchor="middle" x="384" y="-409.2" font-family="Courier,monospace" font-size="11.00" fill="#000000">DefaultController</text>
</g>
<!-- \\DefaultController&#45;&gt;\\Controller -->
<g id="edge23" class="edge">
<title>\\DefaultController&#45;&gt;\\Controller</title>
<path fill="none" stroke="#000000" d="M328.9134,-430.0245C320.8443,-432.8965 312.6722,-435.9351 305,-439 281.1183,-448.5402 255.0832,-460.3545 233.6032,-470.4976"/>
<polygon fill="none" stroke="#000000" points="231.9171,-467.4238 224.3882,-474.8781 234.9224,-473.7458 231.9171,-467.4238"/>
</g>
<!-- \\AdomanyController -->
<g id="node36" class="node">
<title>\\AdomanyController</title>
<polygon fill="none" stroke="#000000" points="449.5,-376 318.5,-376 318.5,-340 449.5,-340 449.5,-376"/>
<text text-anchor="middle" x="384" y="-355.2" font-family="Courier,monospace" font-size="11.00" fill="#000000">AdomanyController</text>
</g>
<!-- \\AdomanyController&#45;&gt;\\Controller -->
<g id="edge24" class="edge">
<title>\\AdomanyController&#45;&gt;\\Controller</title>
<path fill="none" stroke="#000000" d="M322.4776,-376.1771C316.4134,-378.8052 310.482,-381.7413 305,-385 267.5531,-407.2594 231.7824,-442.9145 209.754,-467.1146"/>
<polygon fill="none" stroke="#000000" points="206.8931,-465.0628 202.8277,-474.8466 212.1071,-469.7334 206.8931,-465.0628"/>
</g>
<!-- \\BrowserView -->
<g id="node37" class="node">
<title>\\BrowserView</title>
<polygon fill="none" stroke="#000000" points="643,-1510 552,-1510 552,-1474 643,-1474 643,-1510"/>
<text text-anchor="middle" x="597.5" y="-1489.2" font-family="Courier,monospace" font-size="11.00" fill="#000000">BrowserView</text>
</g>
<!-- \\BrowserView&#45;&gt;\\CommonView -->
<g id="edge25" class="edge">
<title>\\BrowserView&#45;&gt;\\CommonView</title>
<path fill="none" stroke="#000000" d="M551.8178,-1476.7814C545.7331,-1473.5098 539.9107,-1469.6127 535,-1465 452.2443,-1387.2671 407.622,-1254.1353 391.3071,-1196.2541"/>
<polygon fill="none" stroke="#000000" points="394.611,-1195.0682 388.5873,-1186.3524 387.861,-1196.9223 394.611,-1195.0682"/>
</g>
<!-- \\Params -->
<g id="node38" class="node">
<title>\\Params</title>
<polygon fill="none" stroke="#000000" points="626,-430 569,-430 569,-394 626,-394 626,-430"/>
<text text-anchor="middle" x="597.5" y="-409.2" font-family="Courier,monospace" font-size="11.00" fill="#000000">Params</text>
</g>
<!-- \\GetRecordsResult -->
<g id="node39" class="node">
<title>\\GetRecordsResult</title>
<polygon fill="none" stroke="#000000" points="660,-376 535,-376 535,-340 660,-340 660,-376"/>
<text text-anchor="middle" x="597.5" y="-355.2" font-family="Courier,monospace" font-size="11.00" fill="#000000">GetRecordsResult</text>
</g>
<!-- \\Request -->
<g id="node43" class="node">
<title>\\Request</title>
<polygon fill="none" stroke="#000000" points="629.5,-322 565.5,-322 565.5,-286 629.5,-286 629.5,-322"/>
<text text-anchor="middle" x="597.5" y="-301.2" font-family="Courier,monospace" font-size="11.00" fill="#000000">Request</text>
</g>
<!-- \\CommonView&#45;&gt;\\View -->
<g id="edge26" class="edge">
<title>\\CommonView&#45;&gt;\\View</title>
<path fill="none" stroke="#000000" d="M341.8458,-1162.2078C307.1466,-1157.44 258.4089,-1150.7432 225.0386,-1146.158"/>
<polygon fill="none" stroke="#000000" points="225.1647,-1142.6425 214.7813,-1144.7486 224.2118,-1149.5773 225.1647,-1142.6425"/>
</g>
<!-- \\BrowserController -->
<g id="node45" class="node">
<title>\\BrowserController</title>
<polygon fill="none" stroke="#000000" points="449.5,-322 318.5,-322 318.5,-286 449.5,-286 449.5,-322"/>
<text text-anchor="middle" x="384" y="-301.2" font-family="Courier,monospace" font-size="11.00" fill="#000000">BrowserController</text>
</g>
<!-- \\BrowserController&#45;&gt;\\Controller -->
<g id="edge27" class="edge">
<title>\\BrowserController&#45;&gt;\\Controller</title>
<path fill="none" stroke="#000000" d="M319.742,-322.0705C314.5412,-324.6788 309.5465,-327.641 305,-331 256.0851,-367.1392 219.1277,-429.597 200.6448,-465.486"/>
<polygon fill="none" stroke="#000000" points="197.2963,-464.3541 195.927,-474.8601 203.549,-467.501 197.2963,-464.3541"/>
</g>
<!-- \\GoogleloginController -->
<g id="node46" class="node">
<title>\\GoogleloginController</title>
<polygon fill="none" stroke="#000000" points="463,-268 305,-268 305,-232 463,-232 463,-268"/>
<text text-anchor="middle" x="384" y="-247.2" font-family="Courier,monospace" font-size="11.00" fill="#000000">GoogleloginController</text>
</g>
<!-- \\GoogleloginController&#45;&gt;\\Controller -->
<g id="edge28" class="edge">
<title>\\GoogleloginController&#45;&gt;\\Controller</title>
<path fill="none" stroke="#000000" d="M318.0823,-268.0923C313.416,-270.682 308.9877,-273.6347 305,-277 244.3153,-328.2133 209.7835,-419.041 195.4378,-464.8769"/>
<polygon fill="none" stroke="#000000" points="192.0028,-464.1437 192.45,-474.7291 198.7015,-466.1752 192.0028,-464.1437"/>
</g>
<!-- \\ExampleController -->
<g id="node47" class="node">
<title>\\ExampleController</title>
<polygon fill="none" stroke="#000000" points="449.5,-214 318.5,-214 318.5,-178 449.5,-178 449.5,-214"/>
<text text-anchor="middle" x="384" y="-193.2" font-family="Courier,monospace" font-size="11.00" fill="#000000">ExampleController</text>
</g>
<!-- \\ExampleController&#45;&gt;\\Controller -->
<g id="edge29" class="edge">
<title>\\ExampleController&#45;&gt;\\Controller</title>
<path fill="none" stroke="#000000" d="M318.1301,-213.49C313.3961,-216.2164 308.9428,-219.3648 305,-223 232.0622,-290.2473 202.185,-410.6956 191.9974,-465.0424"/>
<polygon fill="none" stroke="#000000" points="188.5327,-464.5348 190.2154,-474.9951 195.4231,-465.7685 188.5327,-464.5348"/>
</g>
<!-- \\Oauth2Controller -->
<g id="node48" class="node">
<title>\\Oauth2Controller</title>
<polygon fill="none" stroke="#000000" points="446.5,-160 321.5,-160 321.5,-124 446.5,-124 446.5,-160"/>
<text text-anchor="middle" x="384" y="-139.2" font-family="Courier,monospace" font-size="11.00" fill="#000000">Oauth2Controller</text>
</g>
<!-- \\Oauth2Controller&#45;&gt;\\Controller -->
<g id="edge30" class="edge">
<title>\\Oauth2Controller&#45;&gt;\\Controller</title>
<path fill="none" stroke="#000000" d="M321.3409,-157.2694C315.357,-160.4657 309.7581,-164.3295 305,-169 220.0047,-252.4308 196.1472,-401.9983 189.7387,-464.4165"/>
<polygon fill="none" stroke="#000000" points="186.2248,-464.3977 188.7636,-474.6839 193.1935,-465.0596 186.2248,-464.3977"/>
</g>
<!-- \\FbloginController -->
<g id="node49" class="node">
<title>\\FbloginController</title>
<polygon fill="none" stroke="#000000" points="449.5,-106 318.5,-106 318.5,-70 449.5,-70 449.5,-106"/>
<text text-anchor="middle" x="384" y="-85.2" font-family="Courier,monospace" font-size="11.00" fill="#000000">FbloginController</text>
</g>
<!-- \\FbloginController&#45;&gt;\\Controller -->
<g id="edge31" class="edge">
<title>\\FbloginController&#45;&gt;\\Controller</title>
<path fill="none" stroke="#000000" d="M318.4365,-104.5755C313.5144,-107.503 308.9408,-110.9474 305,-115 254.8949,-166.5254 208.2279,-386.1895 192.8288,-464.8444"/>
<polygon fill="none" stroke="#000000" points="189.3321,-464.4917 190.8663,-474.9749 196.2043,-465.8231 189.3321,-464.4917"/>
</g>
<!-- \\AuditorController -->
<g id="node50" class="node">
<title>\\AuditorController</title>
<polygon fill="none" stroke="#000000" points="449.5,-52 318.5,-52 318.5,-16 449.5,-16 449.5,-52"/>
<text text-anchor="middle" x="384" y="-31.2" font-family="Courier,monospace" font-size="11.00" fill="#000000">AuditorController</text>
</g>
<!-- \\AuditorController&#45;&gt;\\Controller -->
<g id="edge32" class="edge">
<title>\\AuditorController&#45;&gt;\\Controller</title>
<path fill="none" stroke="#000000" d="M318.2788,-50.4248C313.3904,-53.3845 308.8677,-56.8775 305,-61 248.5189,-121.2022 204.8715,-378.9222 191.6464,-464.9327"/>
<polygon fill="none" stroke="#000000" points="188.1591,-464.5853 190.1178,-474.9975 195.0798,-465.6364 188.1591,-464.5853"/>
</g>
<!-- \\UserregistController -->
<g id="node51" class="node">
<title>\\UserregistController</title>
<polygon fill="none" stroke="#000000" points="460,-1024 308,-1024 308,-988 460,-988 460,-1024"/>
<text text-anchor="middle" x="384" y="-1003.2" font-family="Courier,monospace" font-size="11.00" fill="#000000">UserregistController</text>
</g>
<!-- \\UserregistController&#45;&gt;\\Controller -->
<g id="edge33" class="edge">
<title>\\UserregistController&#45;&gt;\\Controller</title>
<path fill="none" stroke="#000000" d="M315.2108,-987.7859C311.4803,-985.232 308.0275,-982.3201 305,-979 242.1267,-910.0514 201.9871,-614.1532 190.7398,-521.1147"/>
<polygon fill="none" stroke="#000000" points="194.1985,-520.5599 189.5401,-511.0442 187.2477,-521.388 194.1985,-520.5599"/>
</g>
<!-- \\LoginController -->
<g id="node52" class="node">
<title>\\LoginController</title>
<polygon fill="none" stroke="#000000" points="443,-970 325,-970 325,-934 443,-934 443,-970"/>
<text text-anchor="middle" x="384" y="-949.2" font-family="Courier,monospace" font-size="11.00" fill="#000000">LoginController</text>
</g>
<!-- \\LoginController&#45;&gt;\\Controller -->
<g id="edge34" class="edge">
<title>\\LoginController&#45;&gt;\\Controller</title>
<path fill="none" stroke="#000000" d="M324.8558,-939.1495C317.4577,-935.5411 310.5535,-930.9194 305,-925 248.5189,-864.7978 204.8715,-607.0778 191.6464,-521.0673"/>
<polygon fill="none" stroke="#000000" points="195.0798,-520.3636 190.1178,-511.0025 188.1591,-521.4147 195.0798,-520.3636"/>
</g>
<!-- \\UserInfo -->
<g id="node53" class="node">
<title>\\UserInfo</title>
<polygon fill="none" stroke="#000000" points="633,-268 562,-268 562,-232 633,-232 633,-268"/>
<text text-anchor="middle" x="597.5" y="-247.2" font-family="Courier,monospace" font-size="11.00" fill="#000000">UserInfo</text>
</g>
<!-- \\UkauditController -->
<g id="node54" class="node">
<title>\\UkauditController</title>
<polygon fill="none" stroke="#000000" points="449.5,-916 318.5,-916 318.5,-880 449.5,-880 449.5,-916"/>
<text text-anchor="middle" x="384" y="-895.2" font-family="Courier,monospace" font-size="11.00" fill="#000000">UkauditController</text>
</g>
<!-- \\UkauditController&#45;&gt;\\Controller -->
<g id="edge35" class="edge">
<title>\\UkauditController&#45;&gt;\\Controller</title>
<path fill="none" stroke="#000000" d="M318.4365,-881.4245C313.5144,-878.497 308.9408,-875.0526 305,-871 254.8949,-819.4746 208.2279,-599.8105 192.8288,-521.1556"/>
<polygon fill="none" stroke="#000000" points="196.2043,-520.1769 190.8663,-511.0251 189.3321,-521.5083 196.2043,-520.1769"/>
</g>
<!-- \\UkloginModel -->
<g id="node55" class="node">
<title>\\UkloginModel</title>
<polygon fill="none" stroke="#000000" points="646.5,-214 548.5,-214 548.5,-178 646.5,-178 646.5,-214"/>
<text text-anchor="middle" x="597.5" y="-193.2" font-family="Courier,monospace" font-size="11.00" fill="#000000">UkloginModel</text>
</g>
<!-- \\Oauth2View -->
<g id="node56" class="node">
<title>\\Oauth2View</title>
<polygon fill="none" stroke="#000000" points="639.5,-1456 555.5,-1456 555.5,-1420 639.5,-1420 639.5,-1456"/>
<text text-anchor="middle" x="597.5" y="-1435.2" font-family="Courier,monospace" font-size="11.00" fill="#000000">Oauth2View</text>
</g>
<!-- \\Oauth2View&#45;&gt;\\CommonView -->
<g id="edge36" class="edge">
<title>\\Oauth2View&#45;&gt;\\CommonView</title>
<path fill="none" stroke="#000000" d="M555.4118,-1424.0338C548.139,-1420.483 540.9991,-1416.1698 535,-1411 463.3672,-1349.269 414.7656,-1244.9591 394.5571,-1195.5425"/>
<polygon fill="none" stroke="#000000" points="397.7579,-1194.1206 390.7864,-1186.1426 391.2611,-1196.7268 397.7579,-1194.1206"/>
</g>
<!-- \\UserregistView -->
<g id="node57" class="node">
<title>\\UserregistView</title>
<polygon fill="none" stroke="#000000" points="653,-1402 542,-1402 542,-1366 653,-1366 653,-1402"/>
<text text-anchor="middle" x="597.5" y="-1381.2" font-family="Courier,monospace" font-size="11.00" fill="#000000">UserregistView</text>
</g>
<!-- \\UserregistView&#45;&gt;\\CommonView -->
<g id="edge37" class="edge">
<title>\\UserregistView&#45;&gt;\\CommonView</title>
<path fill="none" stroke="#000000" d="M549.0518,-1365.9642C544.1072,-1363.2861 539.321,-1360.3002 535,-1357 474.3077,-1310.6463 423.6518,-1234.7878 399.3952,-1194.7253"/>
<polygon fill="none" stroke="#000000" points="402.3454,-1192.839 394.215,-1186.0458 396.3345,-1196.4264 402.3454,-1192.839"/>
</g>
<!-- \\LoginView -->
<g id="node58" class="node">
<title>\\LoginView</title>
<polygon fill="none" stroke="#000000" points="636,-1294 559,-1294 559,-1258 636,-1258 636,-1294"/>
<text text-anchor="middle" x="597.5" y="-1273.2" font-family="Courier,monospace" font-size="11.00" fill="#000000">LoginView</text>
</g>
<!-- \\LoginView&#45;&gt;\\CommonView -->
<g id="edge38" class="edge">
<title>\\LoginView&#45;&gt;\\CommonView</title>
<path fill="none" stroke="#000000" d="M558.9265,-1259.9436C550.9592,-1256.4577 542.6628,-1252.7023 535,-1249 497.0094,-1230.6451 454.7666,-1207.7664 424.6438,-1191.0101"/>
<polygon fill="none" stroke="#000000" points="426.1401,-1187.837 415.7026,-1186.0182 422.7278,-1193.949 426.1401,-1187.837"/>
</g>
</g>
</svg>
